<?xml version="1.0" encoding="UTF-8"?>
<svg xmlns="http://www.w3.org/2000/svg" version="1.1" viewBox="0 0 48 48">
  <!-- Generator: Adobe Illustrator 28.7.1, SVG Export Plug-In . SVG Version: 1.2.0 Build 142)  -->
  <g>
    <g id="GLYPH">
      <g>
        <path d="M42.98999,5.92999c-.02002-.34003-.20996-.64001-.51001-.79999-.31-.17999-.69995-.17004-1.01001.01996l-15.99994,10c-.29004.17999-.47003.51001-.47003.85004v15.10999c-1.26996-1.29999-3.03998-2.10999-5-2.10999-3.85999,0-7,3.14001-7,7s3.14001,7,7,7,7-3.14001,7-7v-10.45001l14-8.75v10.31c-1.27002-1.29999-3.03998-2.10999-5-2.10999-3.85999,0-7,3.14001-7,7s3.14001,7,7,7,7-3.14001,7-7V6c0-.04004,0-.06-.01001-.07001ZM19,34c-.54999,0-1,.45001-1,1s-.45001,1-1,1-1-.45001-1-1c0-1.65002,1.35004-3,3-3,.54999,0,1,.45001,1,1s-.45001,1-1,1ZM35,30c-.54999,0-1,.45001-1,1s-.45001,1-1,1-1-.45001-1-1c0-1.65002,1.35004-3,3-3,.54999,0,1,.45001,1,1s-.45001,1-1,1Z"/>
        <path d="M13,21h7c.54999,0,1-.45001,1-1v-4c0-.54999-.45001-1-1-1h-8c-.48999,0-.88.35999-.95996.82001-.03003.03998-.04004.08997-.04004.17999v9.56c-.58997-.35004-1.26996-.56-2-.56-2.20996,0-4,1.78998-4,4s1.79004,4,4,4,4-1.79004,4-4v-8Z"/>
        <path d="M6,9h1v1c0,.55225.44775,1,1,1s1-.44775,1-1v-1h1c.55225,0,1-.44775,1-1s-.44775-1-1-1h-1v-1c0-.55225-.44775-1-1-1s-1,.44775-1,1v1h-1c-.55225,0-1,.44775-1,1s.44775,1,1,1Z"/>
        <path d="M14,9h1v1c0,.55225.44775,1,1,1s1-.44775,1-1v-1h1c.55225,0,1-.44775,1-1s-.44775-1-1-1h-1v-1c0-.55225-.44775-1-1-1s-1,.44775-1,1v1h-1c-.55225,0-1,.44775-1,1s.44775,1,1,1Z"/>
        <path d="M21,12h1v1c0,.55225.44775,1,1,1s1-.44775,1-1v-1h1c.55225,0,1-.44775,1-1s-.44775-1-1-1h-1v-1c0-.55225-.44775-1-1-1s-1,.44775-1,1v1h-1c-.55225,0-1,.44775-1,1s.44775,1,1,1Z"/>
      </g>
    </g>
  </g>
</svg>