<svg xmlns="http://www.w3.org/2000/svg" xmlns:xlink="http://www.w3.org/1999/xlink" width="500" zoomAndPan="magnify" viewBox="0 0 375.12 383.03998" height="500" preserveAspectRatio="xMidYMid meet" version="1.2"><defs><clipPath id="169dc15f0f"><path d="M 0.375 3 L 295.078125 3 L 295.078125 121.625 L 0.375 121.625 Z M 0.375 3 "/></clipPath><clipPath id="b6742a991e"><rect x="0" width="296" y="0" height="119"/></clipPath><clipPath id="b5b0f87d59"><path d="M 95 0.964844 L 175 0.964844 L 175 21 L 95 21 Z M 95 0.964844 "/></clipPath><clipPath id="bf55ce2d67"><rect x="0" width="80" y="0" height="21"/></clipPath><clipPath id="42ef8c54e0"><rect x="0" width="296" y="0" height="122"/></clipPath></defs><g id="299ea2fdef"><g transform="matrix(1,0,0,1,37,124)"><g clip-path="url(#42ef8c54e0)"><g clip-rule="nonzero" clip-path="url(#169dc15f0f)"><g transform="matrix(1,0,0,1,0,3)"><g id="e6626cd3ed" clip-path="url(#b6742a991e)"><g style="fill:#000000;fill-opacity:1;"><g transform="translate(0.436256, 85.07078)"><path style="stroke:none" d="M 18.40625 0 C 15.488281 0 12.84375 -0.675781 10.46875 -2.03125 C 8.09375 -3.394531 6.195312 -5.226562 4.78125 -7.53125 C 3.375 -9.832031 2.671875 -12.445312 2.671875 -15.375 C 2.671875 -17.550781 3.148438 -19.59375 4.109375 -21.5 C 5.078125 -23.40625 6.378906 -25.050781 8.015625 -26.4375 C 6.429688 -27.769531 5.179688 -29.351562 4.265625 -31.1875 C 3.347656 -33.019531 2.890625 -34.945312 2.890625 -36.96875 C 2.890625 -39.84375 3.582031 -42.40625 4.96875 -44.65625 C 6.351562 -46.914062 8.207031 -48.695312 10.53125 -50 C 12.863281 -51.3125 15.441406 -51.96875 18.265625 -51.96875 L 40.171875 -51.96875 L 40.171875 -41.578125 L 20.203125 -41.578125 C 19.253906 -41.578125 18.382812 -41.351562 17.59375 -40.90625 C 16.800781 -40.46875 16.171875 -39.875 15.703125 -39.125 C 15.234375 -38.382812 15 -37.519531 15 -36.53125 C 15 -35.59375 15.234375 -34.738281 15.703125 -33.96875 C 16.171875 -33.195312 16.800781 -32.601562 17.59375 -32.1875 C 18.382812 -31.769531 19.253906 -31.5625 20.203125 -31.5625 L 37.640625 -31.5625 L 37.640625 -21.15625 L 20.5625 -21.15625 C 19.53125 -21.15625 18.59375 -20.90625 17.75 -20.40625 C 16.90625 -19.914062 16.234375 -19.273438 15.734375 -18.484375 C 15.242188 -17.691406 15 -16.773438 15 -15.734375 C 15 -14.742188 15.242188 -13.84375 15.734375 -13.03125 C 16.234375 -12.21875 16.90625 -11.585938 17.75 -11.140625 C 18.59375 -10.691406 19.53125 -10.46875 20.5625 -10.46875 L 40.171875 -10.46875 L 40.171875 0 Z M 18.40625 0 "/></g></g><g style="fill:#000000;fill-opacity:1;"><g transform="translate(43.49684, 85.07078)"><path style="stroke:none" d="M 31.265625 0 C 28.085938 0 25.300781 -0.703125 22.90625 -2.109375 C 20.507812 -3.523438 18.628906 -5.421875 17.265625 -7.796875 C 15.898438 -10.171875 15.21875 -12.816406 15.21875 -15.734375 L 15.21875 -41.578125 L 1.109375 -41.578125 L 1.109375 -51.96875 L 41.734375 -51.96875 L 41.734375 -41.578125 L 27.6875 -41.578125 L 27.6875 -14.625 C 27.6875 -13.488281 28.082031 -12.5 28.875 -11.65625 C 29.675781 -10.8125 30.671875 -10.390625 31.859375 -10.390625 L 35.9375 -10.390625 L 35.9375 0 Z M 31.265625 0 "/></g></g><g style="fill:#000000;fill-opacity:1;"><g transform="translate(86.334701, 85.07078)"><path style="stroke:none" d="M 4.53125 0 L 4.53125 -51.96875 L 17 -51.96875 L 17 -31.5625 L 37.28125 -31.5625 L 37.28125 -51.96875 L 49.75 -51.96875 L 49.75 0 L 37.28125 0 L 37.28125 -21.15625 L 17 -21.15625 L 17 0 Z M 4.53125 0 "/></g></g><g style="fill:#000000;fill-opacity:1;"><g transform="translate(140.605885, 85.07078)"><path style="stroke:none" d="M 18.40625 0 C 15.488281 0 12.84375 -0.675781 10.46875 -2.03125 C 8.09375 -3.394531 6.195312 -5.226562 4.78125 -7.53125 C 3.375 -9.832031 2.671875 -12.445312 2.671875 -15.375 C 2.671875 -17.550781 3.148438 -19.59375 4.109375 -21.5 C 5.078125 -23.40625 6.378906 -25.050781 8.015625 -26.4375 C 6.429688 -27.769531 5.179688 -29.351562 4.265625 -31.1875 C 3.347656 -33.019531 2.890625 -34.945312 2.890625 -36.96875 C 2.890625 -39.84375 3.582031 -42.40625 4.96875 -44.65625 C 6.351562 -46.914062 8.207031 -48.695312 10.53125 -50 C 12.863281 -51.3125 15.441406 -51.96875 18.265625 -51.96875 L 40.171875 -51.96875 L 40.171875 -41.578125 L 20.203125 -41.578125 C 19.253906 -41.578125 18.382812 -41.351562 17.59375 -40.90625 C 16.800781 -40.46875 16.171875 -39.875 15.703125 -39.125 C 15.234375 -38.382812 15 -37.519531 15 -36.53125 C 15 -35.59375 15.234375 -34.738281 15.703125 -33.96875 C 16.171875 -33.195312 16.800781 -32.601562 17.59375 -32.1875 C 18.382812 -31.769531 19.253906 -31.5625 20.203125 -31.5625 L 37.640625 -31.5625 L 37.640625 -21.15625 L 20.5625 -21.15625 C 19.53125 -21.15625 18.59375 -20.90625 17.75 -20.40625 C 16.90625 -19.914062 16.234375 -19.273438 15.734375 -18.484375 C 15.242188 -17.691406 15 -16.773438 15 -15.734375 C 15 -14.742188 15.242188 -13.84375 15.734375 -13.03125 C 16.234375 -12.21875 16.90625 -11.585938 17.75 -11.140625 C 18.59375 -10.691406 19.53125 -10.46875 20.5625 -10.46875 L 40.171875 -10.46875 L 40.171875 0 Z M 18.40625 0 "/></g></g><g style="fill:#000000;fill-opacity:1;"><g transform="translate(183.666469, 85.07078)"><path style="stroke:none" d="M 4.53125 0 L 4.53125 -51.96875 L 28.296875 -51.96875 C 31.804688 -51.96875 35.007812 -51.203125 37.90625 -49.671875 C 40.800781 -48.140625 43.101562 -46.007812 44.8125 -43.28125 C 46.519531 -40.5625 47.375 -37.421875 47.375 -33.859375 C 47.375 -30.546875 46.582031 -27.5625 45 -24.90625 C 43.414062 -22.257812 41.335938 -20.117188 38.765625 -18.484375 L 42.921875 -11.4375 C 43.160156 -11.09375 43.441406 -10.820312 43.765625 -10.625 C 44.085938 -10.425781 44.519531 -10.328125 45.0625 -10.328125 L 49.671875 -10.328125 L 49.671875 0 L 42.390625 0 C 40.171875 0 38.144531 -0.53125 36.3125 -1.59375 C 34.476562 -2.65625 33.039062 -4.054688 32 -5.796875 L 26.4375 -15.671875 C 26.082031 -15.671875 25.71875 -15.671875 25.34375 -15.671875 C 24.976562 -15.671875 24.597656 -15.671875 24.203125 -15.671875 L 17 -15.671875 L 17 0 Z M 17 -25.984375 L 26.875 -25.984375 C 28.3125 -25.984375 29.648438 -26.289062 30.890625 -26.90625 C 32.128906 -27.53125 33.101562 -28.421875 33.8125 -29.578125 C 34.53125 -30.742188 34.890625 -32.144531 34.890625 -33.78125 C 34.890625 -35.414062 34.519531 -36.8125 33.78125 -37.96875 C 33.039062 -39.132812 32.0625 -40.023438 30.84375 -40.640625 C 29.632812 -41.265625 28.3125 -41.578125 26.875 -41.578125 L 17 -41.578125 Z M 17 -25.984375 "/></g></g><g style="fill:#000000;fill-opacity:1;"><g transform="translate(234.448259, 85.07078)"><path style="stroke:none" d="M 30.296875 1.109375 C 26.535156 1.109375 23.007812 0.414062 19.71875 -0.96875 C 16.425781 -2.351562 13.53125 -4.296875 11.03125 -6.796875 C 8.53125 -9.296875 6.585938 -12.175781 5.203125 -15.4375 C 3.816406 -18.707031 3.125 -22.222656 3.125 -25.984375 C 3.125 -29.742188 3.816406 -33.257812 5.203125 -36.53125 C 6.585938 -39.800781 8.53125 -42.671875 11.03125 -45.140625 C 13.53125 -47.617188 16.425781 -49.5625 19.71875 -50.96875 C 23.007812 -52.382812 26.535156 -53.09375 30.296875 -53.09375 C 34.054688 -53.09375 37.582031 -52.382812 40.875 -50.96875 C 44.164062 -49.5625 47.0625 -47.617188 49.5625 -45.140625 C 52.0625 -42.671875 54.003906 -39.800781 55.390625 -36.53125 C 56.773438 -33.257812 57.46875 -29.742188 57.46875 -25.984375 C 57.46875 -22.222656 56.773438 -18.707031 55.390625 -15.4375 C 54.003906 -12.175781 52.0625 -9.296875 49.5625 -6.796875 C 47.0625 -4.296875 44.164062 -2.351562 40.875 -0.96875 C 37.582031 0.414062 34.054688 1.109375 30.296875 1.109375 Z M 30.296875 -4.75 C 33.265625 -4.75 36.019531 -5.289062 38.5625 -6.375 C 41.113281 -7.46875 43.34375 -8.992188 45.25 -10.953125 C 47.15625 -12.910156 48.648438 -15.175781 49.734375 -17.75 C 50.828125 -20.320312 51.375 -23.066406 51.375 -25.984375 C 51.375 -28.953125 50.828125 -31.710938 49.734375 -34.265625 C 48.648438 -36.816406 47.15625 -39.054688 45.25 -40.984375 C 43.34375 -42.910156 41.113281 -44.421875 38.5625 -45.515625 C 36.019531 -46.609375 33.265625 -47.15625 30.296875 -47.15625 C 27.367188 -47.15625 24.617188 -46.609375 22.046875 -45.515625 C 19.472656 -44.421875 17.222656 -42.910156 15.296875 -40.984375 C 13.367188 -39.054688 11.859375 -36.816406 10.765625 -34.265625 C 9.671875 -31.710938 9.125 -28.953125 9.125 -25.984375 C 9.125 -23.066406 9.671875 -20.320312 10.765625 -17.75 C 11.859375 -15.175781 13.367188 -12.910156 15.296875 -10.953125 C 17.222656 -8.992188 19.472656 -7.46875 22.046875 -6.375 C 24.617188 -5.289062 27.367188 -4.75 30.296875 -4.75 Z M 19.53125 -12.03125 L 19.53125 -39.875 L 32.078125 -39.875 C 33.910156 -39.875 35.582031 -39.460938 37.09375 -38.640625 C 38.601562 -37.828125 39.8125 -36.691406 40.71875 -35.234375 C 41.632812 -33.773438 42.09375 -32.101562 42.09375 -30.21875 C 42.09375 -28.4375 41.6875 -26.835938 40.875 -25.421875 C 40.0625 -24.015625 38.960938 -22.890625 37.578125 -22.046875 L 39.71875 -18.484375 C 39.820312 -18.335938 39.945312 -18.210938 40.09375 -18.109375 C 40.238281 -18.015625 40.4375 -17.96875 40.6875 -17.96875 L 43.359375 -17.96875 L 43.359375 -12.03125 L 39.203125 -12.03125 C 37.960938 -12.03125 36.882812 -12.335938 35.96875 -12.953125 C 35.050781 -13.578125 34.320312 -14.304688 33.78125 -15.140625 L 30.890625 -20.203125 L 26.65625 -20.203125 L 26.65625 -12.03125 Z M 26.65625 -26.5 L 31.484375 -26.5 C 32.421875 -26.5 33.234375 -26.804688 33.921875 -27.421875 C 34.617188 -28.046875 34.96875 -28.976562 34.96875 -30.21875 C 34.96875 -31.207031 34.617188 -32 33.921875 -32.59375 C 33.234375 -33.1875 32.421875 -33.484375 31.484375 -33.484375 L 26.65625 -33.484375 Z M 26.65625 -26.5 "/></g></g></g></g></g><g clip-rule="nonzero" clip-path="url(#b5b0f87d59)"><g transform="matrix(1,0,0,1,95,0)"><g id="8b9d6094b5" clip-path="url(#bf55ce2d67)"><g style="fill:#000000;fill-opacity:1;"><g transform="translate(0.583501, 14.535833)"><path style="stroke:none" d="M 6.6875 0.140625 C 6.195312 0.140625 5.75 0.0351562 5.34375 -0.171875 C 4.9375 -0.390625 4.613281 -0.691406 4.375 -1.078125 C 4.132812 -1.472656 4.015625 -1.929688 4.015625 -2.453125 L 4.015625 -6.140625 C 4.015625 -6.265625 3.984375 -6.378906 3.921875 -6.484375 C 3.859375 -6.585938 3.773438 -6.671875 3.671875 -6.734375 C 3.566406 -6.804688 3.445312 -6.84375 3.3125 -6.84375 C 3.1875 -6.84375 3.070312 -6.804688 2.96875 -6.734375 C 2.863281 -6.671875 2.78125 -6.585938 2.71875 -6.484375 C 2.65625 -6.378906 2.625 -6.265625 2.625 -6.140625 L 2.625 0 L 0.65625 0 L 0.65625 -6 C 0.65625 -6.5 0.769531 -6.941406 1 -7.328125 C 1.226562 -7.710938 1.546875 -8.019531 1.953125 -8.25 C 2.359375 -8.476562 2.8125 -8.59375 3.3125 -8.59375 C 3.832031 -8.59375 4.289062 -8.476562 4.6875 -8.25 C 5.09375 -8.019531 5.410156 -7.710938 5.640625 -7.328125 C 5.878906 -6.941406 6 -6.5 6 -6 L 6 -2.3125 C 6 -2.175781 6.03125 -2.054688 6.09375 -1.953125 C 6.15625 -1.847656 6.234375 -1.765625 6.328125 -1.703125 C 6.429688 -1.640625 6.546875 -1.609375 6.671875 -1.609375 C 6.796875 -1.609375 6.910156 -1.640625 7.015625 -1.703125 C 7.128906 -1.765625 7.21875 -1.847656 7.28125 -1.953125 C 7.34375 -2.054688 7.375 -2.175781 7.375 -2.3125 L 7.375 -6 C 7.375 -6.5 7.488281 -6.941406 7.71875 -7.328125 C 7.957031 -7.710938 8.28125 -8.019531 8.6875 -8.25 C 9.09375 -8.476562 9.546875 -8.59375 10.046875 -8.59375 C 10.554688 -8.59375 11.007812 -8.476562 11.40625 -8.25 C 11.8125 -8.019531 12.128906 -7.710938 12.359375 -7.328125 C 12.597656 -6.941406 12.71875 -6.5 12.71875 -6 L 12.71875 0 L 10.734375 0 L 10.734375 -6.15625 C 10.734375 -6.28125 10.703125 -6.390625 10.640625 -6.484375 C 10.585938 -6.585938 10.503906 -6.671875 10.390625 -6.734375 C 10.285156 -6.804688 10.171875 -6.84375 10.046875 -6.84375 C 9.921875 -6.84375 9.804688 -6.804688 9.703125 -6.734375 C 9.597656 -6.671875 9.507812 -6.585938 9.4375 -6.484375 C 9.375 -6.390625 9.34375 -6.28125 9.34375 -6.15625 L 9.34375 -2.453125 C 9.34375 -1.929688 9.222656 -1.472656 8.984375 -1.078125 C 8.742188 -0.691406 8.421875 -0.390625 8.015625 -0.171875 C 7.617188 0.0351562 7.175781 0.140625 6.6875 0.140625 Z M 6.6875 0.140625 "/></g></g><g style="fill:#000000;fill-opacity:1;"><g transform="translate(13.946869, 14.535833)"><path style="stroke:none" d="M 0 0 L 2.734375 -7.46875 C 2.867188 -7.832031 3.09375 -8.109375 3.40625 -8.296875 C 3.726562 -8.492188 4.082031 -8.59375 4.46875 -8.59375 C 4.863281 -8.59375 5.21875 -8.5 5.53125 -8.3125 C 5.84375 -8.132812 6.070312 -7.859375 6.21875 -7.484375 L 8.96875 0 L 6.78125 0 L 6.25 -1.625 L 2.671875 -1.625 L 2.109375 0 Z M 3.1875 -3.3125 L 5.734375 -3.3125 L 4.65625 -6.671875 C 4.632812 -6.722656 4.609375 -6.753906 4.578125 -6.765625 C 4.554688 -6.785156 4.523438 -6.796875 4.484375 -6.796875 C 4.441406 -6.796875 4.40625 -6.785156 4.375 -6.765625 C 4.351562 -6.742188 4.335938 -6.710938 4.328125 -6.671875 Z M 3.1875 -3.3125 "/></g></g><g style="fill:#000000;fill-opacity:1;"><g transform="translate(22.908043, 14.535833)"><path style="stroke:none" d="M 0.734375 0 L 0.734375 -8.4375 L 4.59375 -8.4375 C 5.164062 -8.4375 5.6875 -8.3125 6.15625 -8.0625 C 6.625 -7.820312 7 -7.476562 7.28125 -7.03125 C 7.5625 -6.59375 7.703125 -6.082031 7.703125 -5.5 C 7.703125 -4.957031 7.570312 -4.472656 7.3125 -4.046875 C 7.050781 -3.617188 6.710938 -3.269531 6.296875 -3 L 6.96875 -1.859375 C 7.007812 -1.796875 7.054688 -1.75 7.109375 -1.71875 C 7.160156 -1.6875 7.234375 -1.671875 7.328125 -1.671875 L 8.0625 -1.671875 L 8.0625 0 L 6.890625 0 C 6.523438 0 6.191406 -0.0820312 5.890625 -0.25 C 5.597656 -0.425781 5.367188 -0.65625 5.203125 -0.9375 L 4.296875 -2.546875 C 4.234375 -2.546875 4.171875 -2.546875 4.109375 -2.546875 C 4.054688 -2.546875 4 -2.546875 3.9375 -2.546875 L 2.765625 -2.546875 L 2.765625 0 Z M 2.765625 -4.21875 L 4.359375 -4.21875 C 4.597656 -4.21875 4.816406 -4.269531 5.015625 -4.375 C 5.210938 -4.476562 5.367188 -4.625 5.484375 -4.8125 C 5.609375 -5 5.671875 -5.222656 5.671875 -5.484375 C 5.671875 -5.753906 5.609375 -5.984375 5.484375 -6.171875 C 5.367188 -6.359375 5.210938 -6.5 5.015625 -6.59375 C 4.816406 -6.695312 4.597656 -6.75 4.359375 -6.75 L 2.765625 -6.75 Z M 2.765625 -4.21875 "/></g></g><g style="fill:#000000;fill-opacity:1;"><g transform="translate(31.157631, 14.535833)"><path style="stroke:none" d="M 0.734375 0 L 0.734375 -8.4375 L 2.765625 -8.4375 L 2.765625 -5.03125 L 4.15625 -5.03125 C 4.394531 -5.03125 4.613281 -5.078125 4.8125 -5.171875 C 5.007812 -5.265625 5.160156 -5.410156 5.265625 -5.609375 C 5.378906 -5.804688 5.4375 -6.03125 5.4375 -6.28125 L 5.4375 -8.4375 L 7.46875 -8.4375 L 7.46875 -6.265625 C 7.46875 -5.734375 7.335938 -5.253906 7.078125 -4.828125 C 6.816406 -4.398438 6.476562 -4.054688 6.0625 -3.796875 L 6.984375 -1.875 C 7.003906 -1.800781 7.046875 -1.75 7.109375 -1.71875 C 7.171875 -1.6875 7.238281 -1.671875 7.3125 -1.671875 L 8.0625 -1.671875 L 8.0625 0 L 6.90625 0 C 6.457031 0 6.097656 -0.0820312 5.828125 -0.25 C 5.554688 -0.414062 5.347656 -0.648438 5.203125 -0.953125 L 4.046875 -3.34375 C 3.984375 -3.34375 3.921875 -3.34375 3.859375 -3.34375 C 3.804688 -3.34375 3.75 -3.34375 3.6875 -3.34375 L 2.765625 -3.34375 L 2.765625 0 Z M 0.734375 0 "/></g></g><g style="fill:#000000;fill-opacity:1;"><g transform="translate(39.322797, 14.535833)"><path style="stroke:none" d="M 2.984375 0 C 2.515625 0 2.085938 -0.109375 1.703125 -0.328125 C 1.316406 -0.546875 1.007812 -0.84375 0.78125 -1.21875 C 0.550781 -1.59375 0.4375 -2.019531 0.4375 -2.5 C 0.4375 -2.851562 0.515625 -3.179688 0.671875 -3.484375 C 0.828125 -3.796875 1.035156 -4.066406 1.296875 -4.296875 C 1.046875 -4.515625 0.84375 -4.769531 0.6875 -5.0625 C 0.539062 -5.363281 0.46875 -5.675781 0.46875 -6 C 0.46875 -6.46875 0.578125 -6.882812 0.796875 -7.25 C 1.023438 -7.613281 1.328125 -7.898438 1.703125 -8.109375 C 2.085938 -8.328125 2.507812 -8.4375 2.96875 -8.4375 L 6.53125 -8.4375 L 6.53125 -6.75 L 3.28125 -6.75 C 3.125 -6.75 2.984375 -6.710938 2.859375 -6.640625 C 2.734375 -6.566406 2.628906 -6.46875 2.546875 -6.34375 C 2.472656 -6.226562 2.4375 -6.09375 2.4375 -5.9375 C 2.4375 -5.78125 2.472656 -5.640625 2.546875 -5.515625 C 2.628906 -5.390625 2.734375 -5.289062 2.859375 -5.21875 C 2.984375 -5.15625 3.125 -5.125 3.28125 -5.125 L 6.109375 -5.125 L 6.109375 -3.4375 L 3.34375 -3.4375 C 3.175781 -3.4375 3.019531 -3.394531 2.875 -3.3125 C 2.738281 -3.238281 2.628906 -3.132812 2.546875 -3 C 2.472656 -2.875 2.4375 -2.726562 2.4375 -2.5625 C 2.4375 -2.394531 2.472656 -2.242188 2.546875 -2.109375 C 2.628906 -1.984375 2.738281 -1.882812 2.875 -1.8125 C 3.019531 -1.738281 3.175781 -1.703125 3.34375 -1.703125 L 6.53125 -1.703125 L 6.53125 0 Z M 2.984375 0 "/></g></g><g style="fill:#000000;fill-opacity:1;"><g transform="translate(46.318062, 14.535833)"><path style="stroke:none" d="M 5.078125 0 C 4.566406 0 4.113281 -0.113281 3.71875 -0.34375 C 3.332031 -0.570312 3.023438 -0.878906 2.796875 -1.265625 C 2.578125 -1.648438 2.46875 -2.082031 2.46875 -2.5625 L 2.46875 -6.75 L 0.1875 -6.75 L 0.1875 -8.4375 L 6.78125 -8.4375 L 6.78125 -6.75 L 4.5 -6.75 L 4.5 -2.375 C 4.5 -2.1875 4.5625 -2.023438 4.6875 -1.890625 C 4.820312 -1.753906 4.984375 -1.6875 5.171875 -1.6875 L 5.84375 -1.6875 L 5.84375 0 Z M 5.078125 0 "/></g></g><g style="fill:#000000;fill-opacity:1;"><g transform="translate(53.277148, 14.535833)"><path style="stroke:none" d="M 0.546875 0 L 0.546875 -1.6875 L 2 -1.6875 L 2 -6.75 L 0.546875 -6.75 L 0.546875 -8.4375 L 5.46875 -8.4375 L 5.46875 -6.75 L 4.015625 -6.75 L 4.015625 -1.6875 L 5.46875 -1.6875 L 5.46875 0 Z M 0.546875 0 "/></g></g><g style="fill:#000000;fill-opacity:1;"><g transform="translate(59.295485, 14.535833)"><path style="stroke:none" d="M 6.6875 0.140625 C 6.175781 0.140625 5.71875 0.03125 5.3125 -0.1875 C 4.914062 -0.40625 4.597656 -0.710938 4.359375 -1.109375 C 4.128906 -1.503906 4.015625 -1.953125 4.015625 -2.453125 L 4.015625 -6.140625 C 4.015625 -6.265625 3.984375 -6.378906 3.921875 -6.484375 C 3.859375 -6.585938 3.773438 -6.671875 3.671875 -6.734375 C 3.566406 -6.804688 3.445312 -6.84375 3.3125 -6.84375 C 3.1875 -6.84375 3.070312 -6.804688 2.96875 -6.734375 C 2.863281 -6.671875 2.78125 -6.585938 2.71875 -6.484375 C 2.65625 -6.378906 2.625 -6.265625 2.625 -6.140625 L 2.625 0 L 0.65625 0 L 0.65625 -6 C 0.65625 -6.5 0.769531 -6.941406 1 -7.328125 C 1.226562 -7.710938 1.546875 -8.019531 1.953125 -8.25 C 2.359375 -8.476562 2.8125 -8.59375 3.3125 -8.59375 C 3.832031 -8.59375 4.289062 -8.476562 4.6875 -8.25 C 5.09375 -8.019531 5.410156 -7.710938 5.640625 -7.328125 C 5.878906 -6.941406 6 -6.5 6 -6 L 6 -2.296875 C 6 -2.171875 6.03125 -2.050781 6.09375 -1.9375 C 6.15625 -1.832031 6.234375 -1.75 6.328125 -1.6875 C 6.429688 -1.632812 6.546875 -1.609375 6.671875 -1.609375 C 6.796875 -1.609375 6.910156 -1.632812 7.015625 -1.6875 C 7.128906 -1.75 7.21875 -1.832031 7.28125 -1.9375 C 7.34375 -2.050781 7.375 -2.171875 7.375 -2.296875 L 7.375 -8.4375 L 9.34375 -8.4375 L 9.34375 -2.453125 C 9.34375 -1.953125 9.226562 -1.503906 9 -1.109375 C 8.769531 -0.710938 8.453125 -0.40625 8.046875 -0.1875 C 7.640625 0.03125 7.1875 0.140625 6.6875 0.140625 Z M 6.6875 0.140625 "/></g></g><g style="fill:#000000;fill-opacity:1;"><g transform="translate(69.305956, 14.535833)"><path style="stroke:none" d="M 6.8125 2.625 C 6.3125 2.625 5.882812 2.535156 5.53125 2.359375 C 5.175781 2.179688 4.90625 1.929688 4.71875 1.609375 C 4.539062 1.296875 4.453125 0.925781 4.453125 0.5 C 4.453125 0.40625 4.453125 0.3125 4.453125 0.21875 C 4.460938 0.125 4.472656 0.0234375 4.484375 -0.078125 C 3.867188 -0.078125 3.304688 -0.191406 2.796875 -0.421875 C 2.285156 -0.648438 1.847656 -0.957031 1.484375 -1.34375 C 1.117188 -1.726562 0.835938 -2.175781 0.640625 -2.6875 C 0.441406 -3.195312 0.34375 -3.738281 0.34375 -4.3125 C 0.34375 -4.914062 0.445312 -5.472656 0.65625 -5.984375 C 0.863281 -6.492188 1.15625 -6.941406 1.53125 -7.328125 C 1.914062 -7.722656 2.378906 -8.03125 2.921875 -8.25 C 3.460938 -8.476562 4.0625 -8.59375 4.71875 -8.59375 C 5.375 -8.59375 5.972656 -8.488281 6.515625 -8.28125 C 7.054688 -8.070312 7.519531 -7.769531 7.90625 -7.375 C 8.289062 -6.988281 8.582031 -6.539062 8.78125 -6.03125 C 8.988281 -5.53125 9.09375 -4.984375 9.09375 -4.390625 L 9.09375 0.25 C 9.09375 0.675781 9.007812 1.070312 8.84375 1.4375 C 8.675781 1.800781 8.425781 2.085938 8.09375 2.296875 C 7.757812 2.515625 7.332031 2.625 6.8125 2.625 Z M 6.703125 0.90625 C 6.859375 0.90625 6.976562 0.84375 7.0625 0.71875 C 7.144531 0.59375 7.1875 0.429688 7.1875 0.234375 L 7.1875 -1.734375 C 7.019531 -1.585938 6.875 -1.4375 6.75 -1.28125 C 6.625 -1.132812 6.523438 -0.976562 6.453125 -0.8125 C 6.378906 -0.644531 6.320312 -0.472656 6.28125 -0.296875 C 6.25 -0.128906 6.234375 0.046875 6.234375 0.234375 C 6.234375 0.378906 6.253906 0.5 6.296875 0.59375 C 6.335938 0.695312 6.394531 0.773438 6.46875 0.828125 C 6.550781 0.878906 6.628906 0.90625 6.703125 0.90625 Z M 4.640625 -1.78125 C 4.734375 -1.78125 4.816406 -1.785156 4.890625 -1.796875 C 4.960938 -1.804688 5.039062 -1.816406 5.125 -1.828125 C 5.269531 -2.046875 5.4375 -2.257812 5.625 -2.46875 C 5.820312 -2.6875 6.039062 -2.894531 6.28125 -3.09375 C 6.519531 -3.300781 6.785156 -3.492188 7.078125 -3.671875 L 7.078125 -4.453125 C 7.078125 -4.796875 7.019531 -5.113281 6.90625 -5.40625 C 6.789062 -5.707031 6.625 -5.96875 6.40625 -6.1875 C 6.195312 -6.40625 5.945312 -6.570312 5.65625 -6.6875 C 5.375 -6.8125 5.066406 -6.875 4.734375 -6.875 C 4.390625 -6.875 4.070312 -6.8125 3.78125 -6.6875 C 3.5 -6.5625 3.25 -6.378906 3.03125 -6.140625 C 2.820312 -5.910156 2.660156 -5.640625 2.546875 -5.328125 C 2.429688 -5.023438 2.375 -4.691406 2.375 -4.328125 C 2.375 -3.960938 2.425781 -3.628906 2.53125 -3.328125 C 2.644531 -3.023438 2.800781 -2.757812 3 -2.53125 C 3.207031 -2.300781 3.453125 -2.117188 3.734375 -1.984375 C 4.015625 -1.859375 4.316406 -1.789062 4.640625 -1.78125 Z M 4.640625 -1.78125 "/></g></g></g></g></g></g></g></g></svg>