<svg xmlns="http://www.w3.org/2000/svg" xmlns:xlink="http://www.w3.org/1999/xlink" width="500" zoomAndPan="magnify" viewBox="0 0 375.12 383.03998" height="500" preserveAspectRatio="xMidYMid meet" version="1.2"><defs><clipPath id="20b4aa2a60"><path d="M 49.214844 184.085938 L 105.164062 184.085938 L 105.164062 251 L 49.214844 251 Z M 49.214844 184.085938 "/></clipPath><clipPath id="798a8dcff4"><path d="M 77.074219 250.984375 C 70.144531 250.984375 64.328125 249.265625 59.605469 245.800781 C 54.878906 242.335938 51.535156 237.320312 49.550781 230.78125 L 64.425781 225.253906 C 65.660156 229.035156 67.332031 231.871094 69.394531 233.664062 C 71.453125 235.457031 74.042969 236.375 77.171875 236.375 C 80.660156 236.375 83.492188 235.261719 85.699219 232.910156 C 87.878906 230.609375 88.96875 227.582031 88.96875 223.824219 L 88.96875 184.527344 L 105.082031 184.527344 L 105.082031 224.335938 C 105.082031 229.617188 103.917969 234.292969 101.566406 238.265625 C 99.21875 242.289062 95.972656 245.390625 91.78125 247.617188 C 87.589844 249.871094 82.695312 250.984375 77.097656 250.984375 "/></clipPath><clipPath id="71ea0f03c1"><path d="M 0.347656 0.339844 L 56.125 0.339844 L 56.125 67 L 0.347656 67 Z M 0.347656 0.339844 "/></clipPath><clipPath id="9de6a50e67"><path d="M 28.074219 66.984375 C 21.144531 66.984375 15.328125 65.265625 10.605469 61.800781 C 5.878906 58.335938 2.535156 53.320312 0.550781 46.78125 L 15.425781 41.253906 C 16.660156 45.035156 18.332031 47.871094 20.394531 49.664062 C 22.453125 51.457031 25.042969 52.375 28.171875 52.375 C 31.660156 52.375 34.492188 51.261719 36.699219 48.910156 C 38.878906 46.609375 39.96875 43.582031 39.96875 39.824219 L 39.96875 0.527344 L 56.082031 0.527344 L 56.082031 40.335938 C 56.082031 45.617188 54.917969 50.292969 52.566406 54.265625 C 50.21875 58.289062 46.972656 61.390625 42.78125 63.617188 C 38.589844 65.871094 33.695312 66.984375 28.097656 66.984375 "/></clipPath><clipPath id="be94c87ef2"><rect x="0" width="57" y="0" height="67"/></clipPath><clipPath id="ed62ca8bad"><path d="M 110 200.28125 L 158.90625 200.28125 L 158.90625 251 L 110 251 Z M 110 200.28125 "/></clipPath><clipPath id="76b0e8e0bb"><path d="M 129.867188 250.984375 C 125.988281 250.984375 122.574219 250.160156 119.617188 248.464844 C 116.660156 246.769531 114.335938 244.417969 112.640625 241.414062 C 110.945312 238.363281 110.121094 234.921875 110.121094 231.046875 L 110.121094 200.519531 L 125.285156 200.519531 L 125.285156 228.988281 C 125.285156 231.699219 126.109375 233.855469 127.757812 235.527344 C 129.40625 237.199219 131.585938 238 134.25 238 C 136.191406 238 137.910156 237.660156 139.386719 236.957031 C 140.890625 236.277344 142.125 235.308594 143.144531 234.074219 L 143.144531 200.519531 L 158.308594 200.519531 L 158.308594 250.039062 L 143.144531 250.039062 L 143.144531 246.695312 C 139.386719 249.554688 134.976562 250.984375 129.84375 250.984375 "/></clipPath><clipPath id="8d7759b46f"><path d="M 0 0.378906 L 48.511719 0.378906 L 48.511719 51 L 0 51 Z M 0 0.378906 "/></clipPath><clipPath id="a334a630d7"><path d="M 19.867188 50.984375 C 15.988281 50.984375 12.574219 50.160156 9.617188 48.464844 C 6.660156 46.769531 4.335938 44.417969 2.640625 41.414062 C 0.945312 38.363281 0.121094 34.921875 0.121094 31.046875 L 0.121094 0.519531 L 15.285156 0.519531 L 15.285156 28.988281 C 15.285156 31.699219 16.109375 33.855469 17.757812 35.527344 C 19.40625 37.199219 21.585938 38 24.25 38 C 26.191406 38 27.910156 37.660156 29.386719 36.957031 C 30.890625 36.277344 32.125 35.308594 33.144531 34.074219 L 33.144531 0.519531 L 48.308594 0.519531 L 48.308594 50.039062 L 33.144531 50.039062 L 33.144531 46.695312 C 29.386719 49.554688 24.976562 50.984375 19.84375 50.984375 "/></clipPath><clipPath id="cf88393911"><rect x="0" width="49" y="0" height="51"/></clipPath><clipPath id="f10b464a8e"><path d="M 163.320312 199.546875 L 212.644531 199.546875 L 212.644531 250.339844 L 163.320312 250.339844 Z M 163.320312 199.546875 "/></clipPath><clipPath id="94d034200b"><path d="M 163.929688 250.039062 L 163.929688 200.519531 L 179.097656 200.519531 L 179.097656 203.886719 C 182.851562 201.027344 187.261719 199.574219 192.398438 199.574219 C 196.273438 199.574219 199.691406 200.445312 202.648438 202.117188 C 205.601562 203.789062 207.929688 206.140625 209.625 209.144531 C 211.320312 212.148438 212.144531 215.589844 212.144531 219.511719 L 212.144531 250.039062 L 196.953125 250.039062 L 196.953125 221.597656 C 196.953125 218.859375 196.152344 216.679688 194.53125 215.054688 C 192.90625 213.433594 190.726562 212.609375 187.988281 212.609375 C 186.050781 212.609375 184.355469 212.949219 182.902344 213.625 C 181.421875 214.328125 180.164062 215.273438 179.121094 216.558594 L 179.121094 250.039062 Z M 163.929688 250.039062 "/></clipPath><clipPath id="9e8b452431"><path d="M 0.78125 0.546875 L 49.378906 0.546875 L 49.378906 51.171875 L 0.78125 51.171875 Z M 0.78125 0.546875 "/></clipPath><clipPath id="814828b48a"><path d="M 0.929688 51.039062 L 0.929688 1.519531 L 16.097656 1.519531 L 16.097656 4.886719 C 19.851562 2.027344 24.261719 0.574219 29.398438 0.574219 C 33.273438 0.574219 36.691406 1.445312 39.648438 3.117188 C 42.601562 4.789062 44.929688 7.140625 46.625 10.144531 C 48.320312 13.148438 49.144531 16.589844 49.144531 20.511719 L 49.144531 51.039062 L 33.953125 51.039062 L 33.953125 22.597656 C 33.953125 19.859375 33.152344 17.679688 31.53125 16.054688 C 29.90625 14.433594 27.726562 13.609375 24.988281 13.609375 C 23.050781 13.609375 21.355469 13.949219 19.902344 14.625 C 18.421875 15.328125 17.164062 16.273438 16.121094 17.558594 L 16.121094 51.039062 Z M 0.929688 51.039062 "/></clipPath><clipPath id="afe17cc6fe"><rect x="0" width="50" y="0" height="52"/></clipPath><clipPath id="1a48dbc29c"><path d="M 217.0625 199.546875 L 271 199.546875 L 271 269.480469 L 217.0625 269.480469 Z M 217.0625 199.546875 "/></clipPath><clipPath id="a7c2f8d2b0"><path d="M 243.011719 237.878906 C 245.507812 237.878906 247.710938 237.34375 249.648438 236.253906 C 251.585938 235.140625 253.136719 233.664062 254.277344 231.75 C 255.414062 229.835938 255.996094 227.703125 255.996094 225.328125 C 255.996094 222.953125 255.414062 220.820312 254.277344 218.90625 C 253.113281 217.042969 251.5625 215.539062 249.601562 214.449219 C 247.636719 213.359375 245.433594 212.800781 243.011719 212.800781 C 240.878906 212.800781 238.964844 213.140625 237.195312 213.769531 C 235.453125 214.449219 233.878906 215.417969 232.519531 216.726562 L 232.519531 234.050781 C 233.828125 235.261719 235.378906 236.15625 237.195312 236.859375 C 239.011719 237.539062 240.953125 237.878906 243.011719 237.878906 Z M 217.378906 269.15625 L 217.378906 200.519531 L 232.351562 200.519531 L 232.351562 204.199219 C 236.277344 201.316406 240.710938 199.886719 245.652344 199.886719 C 250.402344 199.886719 254.664062 201.003906 258.46875 203.304688 C 262.273438 205.605469 265.300781 208.636719 267.554688 212.464844 C 269.808594 216.289062 270.921875 220.601562 270.921875 225.328125 C 270.921875 230.050781 269.78125 234.363281 267.503906 238.191406 C 265.226562 242.019531 262.152344 245.074219 258.25 247.304688 C 254.351562 249.53125 249.988281 250.671875 245.191406 250.671875 C 242.890625 250.671875 240.660156 250.378906 238.554688 249.796875 C 236.445312 249.21875 234.433594 248.441406 232.570312 247.398438 L 232.570312 269.109375 Z M 217.378906 269.15625 "/></clipPath><clipPath id="46a140ad28"><path d="M 0.164062 0.660156 L 54 0.660156 L 54 70.324219 L 0.164062 70.324219 Z M 0.164062 0.660156 "/></clipPath><clipPath id="43733ec896"><path d="M 26.011719 38.878906 C 28.507812 38.878906 30.710938 38.34375 32.648438 37.253906 C 34.585938 36.140625 36.136719 34.664062 37.277344 32.75 C 38.414062 30.835938 38.996094 28.703125 38.996094 26.328125 C 38.996094 23.953125 38.414062 21.820312 37.277344 19.90625 C 36.113281 18.042969 34.5625 16.539062 32.601562 15.449219 C 30.636719 14.359375 28.433594 13.800781 26.011719 13.800781 C 23.878906 13.800781 21.964844 14.140625 20.195312 14.769531 C 18.453125 15.449219 16.878906 16.417969 15.519531 17.726562 L 15.519531 35.050781 C 16.828125 36.261719 18.378906 37.15625 20.195312 37.859375 C 22.011719 38.539062 23.953125 38.878906 26.011719 38.878906 Z M 0.378906 70.15625 L 0.378906 1.519531 L 15.351562 1.519531 L 15.351562 5.199219 C 19.277344 2.316406 23.710938 0.886719 28.652344 0.886719 C 33.402344 0.886719 37.664062 2.003906 41.46875 4.304688 C 45.273438 6.605469 48.300781 9.636719 50.554688 13.464844 C 52.808594 17.289062 53.921875 21.601562 53.921875 26.328125 C 53.921875 31.050781 52.78125 35.363281 50.503906 39.191406 C 48.226562 43.019531 45.152344 46.074219 41.25 48.304688 C 37.351562 50.53125 32.988281 51.671875 28.191406 51.671875 C 25.890625 51.671875 23.660156 51.378906 21.554688 50.796875 C 19.445312 50.21875 17.433594 49.441406 15.570312 48.398438 L 15.570312 70.109375 Z M 0.378906 70.15625 "/></clipPath><clipPath id="55c7c2ad88"><rect x="0" width="54" y="0" height="71"/></clipPath><clipPath id="8ba2121b38"><path d="M 273.011719 199.546875 L 324.542969 199.546875 L 324.542969 251 L 273.011719 251 Z M 273.011719 199.546875 "/></clipPath><clipPath id="96059e1abb"><path d="M 288.996094 219.902344 L 309.6875 219.902344 C 309.175781 218.277344 308.425781 216.898438 307.386719 215.78125 C 306.367188 214.621094 305.15625 213.722656 303.773438 213.042969 C 302.394531 212.414062 300.914062 212.074219 299.292969 212.074219 C 297.597656 212.074219 296.070312 212.367188 294.714844 213.019531 C 293.355469 213.675781 292.167969 214.523438 291.199219 215.683594 C 290.230469 216.847656 289.503906 218.277344 288.996094 219.925781 Z M 300.699219 250.984375 C 295.632812 250.984375 291.078125 249.871094 286.984375 247.570312 C 282.890625 245.316406 279.667969 242.238281 277.292969 238.363281 C 274.917969 234.484375 273.730469 230.148438 273.730469 225.328125 C 273.730469 220.507812 274.871094 216.195312 277.148438 212.292969 C 279.425781 208.417969 282.527344 205.386719 286.453125 203.085938 C 290.375 200.785156 294.738281 199.671875 299.558594 199.671875 C 304.429688 199.671875 308.742188 200.832031 312.472656 203.160156 C 316.226562 205.535156 319.160156 208.707031 321.316406 212.777344 C 323.472656 216.847656 324.539062 221.476562 324.539062 226.707031 L 324.539062 230.464844 L 289.285156 230.464844 C 289.964844 232.039062 290.886719 233.394531 292.046875 234.582031 C 293.210938 235.769531 294.59375 236.691406 296.214844 237.320312 C 297.839844 238 299.582031 238.339844 301.449219 238.339844 C 303.507812 238.339844 305.375 238 307.070312 237.320312 C 308.765625 236.691406 310.195312 235.769531 311.382812 234.582031 L 321.390625 243.476562 C 318.261719 246.089844 315.066406 247.980469 311.792969 249.167969 C 308.523438 250.332031 304.816406 250.9375 300.699219 250.9375 "/></clipPath><clipPath id="cefdb3d798"><path d="M 0.664062 0.660156 L 51.542969 0.660156 L 51.542969 52 L 0.664062 52 Z M 0.664062 0.660156 "/></clipPath><clipPath id="42aae7999f"><path d="M 15.996094 20.902344 L 36.6875 20.902344 C 36.175781 19.277344 35.425781 17.898438 34.386719 16.78125 C 33.367188 15.621094 32.15625 14.722656 30.773438 14.042969 C 29.394531 13.414062 27.914062 13.074219 26.292969 13.074219 C 24.597656 13.074219 23.070312 13.367188 21.714844 14.019531 C 20.355469 14.675781 19.167969 15.523438 18.199219 16.683594 C 17.230469 17.847656 16.503906 19.277344 15.996094 20.925781 Z M 27.699219 51.984375 C 22.632812 51.984375 18.078125 50.871094 13.984375 48.570312 C 9.890625 46.316406 6.667969 43.238281 4.292969 39.363281 C 1.917969 35.484375 0.730469 31.148438 0.730469 26.328125 C 0.730469 21.507812 1.871094 17.195312 4.148438 13.292969 C 6.425781 9.417969 9.527344 6.386719 13.453125 4.085938 C 17.375 1.785156 21.738281 0.671875 26.558594 0.671875 C 31.429688 0.671875 35.742188 1.832031 39.472656 4.160156 C 43.226562 6.535156 46.160156 9.707031 48.316406 13.777344 C 50.472656 17.847656 51.539062 22.476562 51.539062 27.707031 L 51.539062 31.464844 L 16.285156 31.464844 C 16.964844 33.039062 17.886719 34.394531 19.046875 35.582031 C 20.210938 36.769531 21.59375 37.691406 23.214844 38.320312 C 24.839844 39 26.582031 39.339844 28.449219 39.339844 C 30.507812 39.339844 32.375 39 34.070312 38.320312 C 35.765625 37.691406 37.195312 36.769531 38.382812 35.582031 L 48.390625 44.476562 C 45.261719 47.089844 42.066406 48.980469 38.792969 50.167969 C 35.523438 51.332031 31.816406 51.9375 27.699219 51.9375 "/></clipPath><clipPath id="30e88fca7b"><rect x="0" width="52" y="0" height="52"/></clipPath><clipPath id="ddbc68ec98"><path d="M 136.082031 104.578125 L 241 104.578125 L 241 174.515625 L 136.082031 174.515625 Z M 136.082031 104.578125 "/></clipPath><clipPath id="96cb693b02"><path d="M 205.992188 104.914062 L 205.992188 139.683594 C 186.777344 139.683594 171.222656 124.101562 171.222656 104.914062 L 136.457031 104.914062 C 136.457031 117.5625 139.847656 129.457031 145.757812 139.683594 C 151.863281 150.222656 160.660156 159.039062 171.222656 165.121094 C 181.449219 171.058594 193.320312 174.425781 205.992188 174.425781 L 240.757812 174.425781 L 240.757812 104.914062 Z M 205.992188 104.914062 "/></clipPath><clipPath id="6ff55c455e"><path d="M 0.25 0.855469 L 104.867188 0.855469 L 104.867188 70.515625 L 0.25 70.515625 Z M 0.25 0.855469 "/></clipPath><clipPath id="2f4a63c6df"><path d="M 69.992188 0.914062 L 69.992188 35.683594 C 50.777344 35.683594 35.222656 20.101562 35.222656 0.914062 L 0.457031 0.914062 C 0.457031 13.5625 3.847656 25.457031 9.757812 35.683594 C 15.863281 46.222656 24.660156 55.039062 35.222656 61.121094 C 45.449219 67.058594 57.320312 70.425781 69.992188 70.425781 L 104.757812 70.425781 L 104.757812 0.914062 Z M 69.992188 0.914062 "/></clipPath><clipPath id="674e5b65c8"><rect x="0" width="105" y="0" height="71"/></clipPath></defs><g id="fbbafcbd42"><g clip-rule="nonzero" clip-path="url(#20b4aa2a60)"><g clip-rule="nonzero" clip-path="url(#798a8dcff4)"><g transform="matrix(1,0,0,1,49,184)"><g clip-path="url(#be94c87ef2)"><g clip-rule="nonzero" clip-path="url(#71ea0f03c1)"><g clip-rule="nonzero" clip-path="url(#9de6a50e67)"><rect x="0" width="57" height="67" y="0" style="fill:#000000;fill-opacity:1;stroke:none;"/></g></g></g></g></g></g><g clip-rule="nonzero" clip-path="url(#ed62ca8bad)"><g clip-rule="nonzero" clip-path="url(#76b0e8e0bb)"><g transform="matrix(1,0,0,1,110,200)"><g clip-path="url(#cf88393911)"><g clip-rule="nonzero" clip-path="url(#8d7759b46f)"><g clip-rule="nonzero" clip-path="url(#a334a630d7)"><rect x="0" width="49" height="51" y="0" style="fill:#000000;fill-opacity:1;stroke:none;"/></g></g></g></g></g></g><g clip-rule="nonzero" clip-path="url(#f10b464a8e)"><g clip-rule="nonzero" clip-path="url(#94d034200b)"><g transform="matrix(1,0,0,1,163,199)"><g clip-path="url(#afe17cc6fe)"><g clip-rule="nonzero" clip-path="url(#9e8b452431)"><g clip-rule="nonzero" clip-path="url(#814828b48a)"><rect x="0" width="50" height="52" y="0" style="fill:#000000;fill-opacity:1;stroke:none;"/></g></g></g></g></g></g><g clip-rule="nonzero" clip-path="url(#1a48dbc29c)"><g clip-rule="nonzero" clip-path="url(#a7c2f8d2b0)"><g transform="matrix(1,0,0,1,217,199)"><g clip-path="url(#55c7c2ad88)"><g clip-rule="nonzero" clip-path="url(#46a140ad28)"><g clip-rule="nonzero" clip-path="url(#43733ec896)"><rect x="0" width="54" height="71" y="0" style="fill:#000000;fill-opacity:1;stroke:none;"/></g></g></g></g></g></g><g clip-rule="nonzero" clip-path="url(#8ba2121b38)"><g clip-rule="nonzero" clip-path="url(#96059e1abb)"><g transform="matrix(1,0,0,1,273,199)"><g clip-path="url(#30e88fca7b)"><g clip-rule="nonzero" clip-path="url(#cefdb3d798)"><g clip-rule="nonzero" clip-path="url(#42aae7999f)"><rect x="0" width="52" height="52" y="0" style="fill:#000000;fill-opacity:1;stroke:none;"/></g></g></g></g></g></g><g clip-rule="nonzero" clip-path="url(#ddbc68ec98)"><g clip-rule="nonzero" clip-path="url(#96cb693b02)"><g transform="matrix(1,0,0,1,136,104)"><g clip-path="url(#674e5b65c8)"><g clip-rule="nonzero" clip-path="url(#6ff55c455e)"><g clip-rule="nonzero" clip-path="url(#2f4a63c6df)"><rect x="0" width="105" height="71" y="0" style="fill:#000000;fill-opacity:1;stroke:none;"/></g></g></g></g></g></g></g></svg>