<svg xmlns="http://www.w3.org/2000/svg" xmlns:xlink="http://www.w3.org/1999/xlink" width="500" zoomAndPan="magnify" viewBox="0 0 375.12 383.03998" height="500" preserveAspectRatio="xMidYMid meet" version="1.2"><defs><clipPath id="4964ad49ef"><path d="M 28.8125 230.289062 L 36.730469 230.289062 L 36.730469 239.355469 L 28.8125 239.355469 Z M 28.8125 230.289062 "/></clipPath><clipPath id="fa0e8462fc"><path d="M 36.730469 239.34375 L 33.875 239.34375 L 31.011719 233.511719 L 31.011719 239.34375 L 28.8125 239.34375 L 28.8125 230.289062 L 31.671875 230.289062 L 34.542969 236.148438 L 34.542969 230.289062 L 36.730469 230.289062 Z M 36.730469 239.34375 "/></clipPath><clipPath id="7e15865fcc"><path d="M 0.8125 0.289062 L 8.730469 0.289062 L 8.730469 9.355469 L 0.8125 9.355469 Z M 0.8125 0.289062 "/></clipPath><clipPath id="673f17d104"><path d="M 8.730469 9.34375 L 5.875 9.34375 L 3.011719 3.511719 L 3.011719 9.34375 L 0.8125 9.34375 L 0.8125 0.289062 L 3.671875 0.289062 L 6.542969 6.148438 L 6.542969 0.289062 L 8.730469 0.289062 Z M 8.730469 9.34375 "/></clipPath><clipPath id="20bb9c6833"><rect x="0" width="9" y="0" height="10"/></clipPath><clipPath id="44127eaa28"><path d="M 51.242188 230.289062 L 60.222656 230.289062 L 60.222656 239.375 L 51.242188 239.375 Z M 51.242188 230.289062 "/></clipPath><clipPath id="e47906a518"><path d="M 54.761719 235.660156 L 56.714844 235.660156 L 55.746094 232.292969 Z M 60.21875 239.355469 L 57.726562 239.355469 L 57.179688 237.539062 L 54.28125 237.539062 L 53.75 239.34375 L 51.242188 239.34375 L 54.101562 230.289062 L 57.375 230.289062 Z M 60.21875 239.355469 "/></clipPath><clipPath id="7e4eb3bd03"><path d="M 0.242188 0.289062 L 9.222656 0.289062 L 9.222656 9.375 L 0.242188 9.375 Z M 0.242188 0.289062 "/></clipPath><clipPath id="da9e3c6c1e"><path d="M 3.761719 5.660156 L 5.714844 5.660156 L 4.746094 2.292969 Z M 9.21875 9.355469 L 6.726562 9.355469 L 6.179688 7.539062 L 3.28125 7.539062 L 2.75 9.34375 L 0.242188 9.34375 L 3.101562 0.289062 L 6.375 0.289062 Z M 9.21875 9.355469 "/></clipPath><clipPath id="6154671287"><rect x="0" width="10" y="0" height="10"/></clipPath><clipPath id="fbc8a53972"><path d="M 73.308594 230.289062 L 80.640625 230.289062 L 80.640625 232.164062 L 73.308594 232.164062 Z M 75.792969 232.164062 L 78.148438 232.164062 L 78.148438 239.34375 L 75.792969 239.34375 Z M 75.792969 232.164062 "/></clipPath><clipPath id="1baf343160"><path d="M 0.308594 0.289062 L 7.640625 0.289062 L 7.640625 2.164062 L 0.308594 2.164062 Z M 2.792969 2.164062 L 5.148438 2.164062 L 5.148438 9.34375 L 2.792969 9.34375 Z M 2.792969 2.164062 "/></clipPath><clipPath id="c3bb8005fd"><rect x="0" width="8" y="0" height="10"/></clipPath><clipPath id="c639de783e"><path d="M 95.21875 230.289062 L 102.933594 230.289062 L 102.933594 239.570312 L 95.21875 239.570312 Z M 95.21875 230.289062 "/></clipPath><clipPath id="fe821c06fa"><path d="M 97.609375 235.207031 C 97.609375 237.03125 97.816406 237.570312 99.101562 237.570312 C 100.34375 237.570312 100.546875 236.894531 100.546875 235.214844 L 100.546875 230.289062 L 102.929688 230.289062 L 102.929688 235.222656 C 102.929688 238.273438 102.097656 239.570312 99.125 239.570312 C 96.109375 239.570312 95.21875 238.507812 95.21875 235.207031 L 95.21875 230.289062 L 97.609375 230.289062 Z M 97.609375 235.207031 "/></clipPath><clipPath id="93adc54b58"><path d="M 0.21875 0.289062 L 7.933594 0.289062 L 7.933594 9.570312 L 0.21875 9.570312 Z M 0.21875 0.289062 "/></clipPath><clipPath id="5231f71a2e"><path d="M 2.609375 5.207031 C 2.609375 7.03125 2.816406 7.570312 4.101562 7.570312 C 5.34375 7.570312 5.546875 6.894531 5.546875 5.214844 L 5.546875 0.289062 L 7.929688 0.289062 L 7.929688 5.222656 C 7.929688 8.273438 7.097656 9.570312 4.125 9.570312 C 1.109375 9.570312 0.21875 8.507812 0.21875 5.207031 L 0.21875 0.289062 L 2.609375 0.289062 Z M 2.609375 5.207031 "/></clipPath><clipPath id="dec5942150"><rect x="0" width="8" y="0" height="10"/></clipPath><clipPath id="67c160674e"><path d="M 117.917969 230.289062 L 125.6875 230.289062 L 125.6875 239.359375 L 117.917969 239.359375 Z M 117.917969 230.289062 "/></clipPath><clipPath id="364fbd1edb"><path d="M 120.273438 232.097656 L 120.273438 234.289062 C 120.609375 234.332031 120.953125 234.359375 121.59375 234.359375 C 122.582031 234.359375 122.90625 233.980469 122.90625 233.246094 C 122.90625 232.429688 122.605469 232.105469 121.613281 232.105469 Z M 125.183594 232.910156 C 125.183594 234.085938 124.757812 234.90625 123.695312 235.265625 C 124.207031 235.445312 124.636719 235.875 124.851562 236.5625 L 125.664062 239.347656 L 123.164062 239.347656 L 122.453125 236.859375 C 122.273438 236.355469 121.988281 236.15625 121.585938 236.15625 L 121.261719 236.15625 C 120.796875 236.15625 120.558594 236.140625 120.273438 236.132812 L 120.273438 239.347656 L 117.917969 239.347656 L 117.917969 230.289062 L 122.230469 230.289062 C 124.429688 230.289062 125.175781 231.101562 125.175781 232.917969 "/></clipPath><clipPath id="e72725bfcf"><path d="M 0.917969 0.289062 L 8.6875 0.289062 L 8.6875 9.359375 L 0.917969 9.359375 Z M 0.917969 0.289062 "/></clipPath><clipPath id="695a4a522b"><path d="M 3.273438 2.097656 L 3.273438 4.289062 C 3.609375 4.332031 3.953125 4.359375 4.59375 4.359375 C 5.582031 4.359375 5.90625 3.980469 5.90625 3.246094 C 5.90625 2.429688 5.605469 2.105469 4.613281 2.105469 Z M 8.183594 2.910156 C 8.183594 4.085938 7.757812 4.90625 6.695312 5.265625 C 7.207031 5.445312 7.636719 5.875 7.851562 6.5625 L 8.664062 9.347656 L 6.164062 9.347656 L 5.453125 6.859375 C 5.273438 6.355469 4.988281 6.15625 4.585938 6.15625 L 4.261719 6.15625 C 3.796875 6.15625 3.558594 6.140625 3.273438 6.132812 L 3.273438 9.347656 L 0.917969 9.347656 L 0.917969 0.289062 L 5.230469 0.289062 C 7.429688 0.289062 8.175781 1.101562 8.175781 2.917969 "/></clipPath><clipPath id="1f20d94ef1"><rect x="0" width="9" y="0" height="10"/></clipPath><clipPath id="b79f14cf88"><path d="M 139.765625 230.289062 L 148.75 230.289062 L 148.75 239.375 L 139.765625 239.375 Z M 139.765625 230.289062 "/></clipPath><clipPath id="1fe4de1bc5"><path d="M 143.289062 235.660156 L 145.242188 235.660156 L 144.273438 232.292969 Z M 148.746094 239.355469 L 146.253906 239.355469 L 145.703125 237.539062 L 142.808594 237.539062 L 142.277344 239.34375 L 139.765625 239.34375 L 142.628906 230.289062 L 145.902344 230.289062 Z M 148.746094 239.355469 "/></clipPath><clipPath id="5e877aba2e"><path d="M 0.765625 0.289062 L 9.75 0.289062 L 9.75 9.375 L 0.765625 9.375 Z M 0.765625 0.289062 "/></clipPath><clipPath id="d1909b952d"><path d="M 4.289062 5.660156 L 6.242188 5.660156 L 5.273438 2.292969 Z M 9.746094 9.355469 L 7.253906 9.355469 L 6.703125 7.539062 L 3.808594 7.539062 L 3.277344 9.34375 L 0.765625 9.34375 L 3.628906 0.289062 L 6.902344 0.289062 Z M 9.746094 9.355469 "/></clipPath><clipPath id="cd1ff9171d"><rect x="0" width="10" y="0" height="10"/></clipPath><clipPath id="a52c126131"><path d="M 29.261719 29.316406 L 74 29.316406 L 74 78 L 29.261719 78 Z M 29.261719 29.316406 "/></clipPath><clipPath id="7377dd52f3"><path d="M 53.734375 53.714844 C 55.980469 53.671875 57.726562 52.988281 58.988281 51.660156 C 60.246094 50.332031 60.871094 48.78125 60.871094 46.988281 C 60.871094 45.25 60.253906 43.757812 59.023438 42.523438 C 57.789062 41.289062 56.046875 40.671875 53.804688 40.671875 L 42.679688 40.671875 L 42.679688 53.714844 Z M 29.84375 77.941406 L 29.84375 29.894531 L 53.804688 29.894531 C 59.84375 29.894531 64.667969 31.324219 68.285156 34.1875 C 71.902344 37.046875 73.707031 41.265625 73.707031 46.851562 C 73.707031 50.699219 72.816406 53.914062 71.035156 56.492188 C 69.253906 59.070312 66.835938 61.007812 63.792969 62.292969 C 60.753906 63.578125 57.375 64.210938 53.675781 64.210938 L 42.679688 64.210938 L 42.679688 77.941406 Z M 29.84375 77.941406 "/></clipPath><clipPath id="5c078744f1"><path d="M 0.824219 0.71875 L 44.871094 0.71875 L 44.871094 49 L 0.824219 49 Z M 0.824219 0.71875 "/></clipPath><clipPath id="31d0201e98"><path d="M 24.734375 24.714844 C 26.980469 24.671875 28.726562 23.988281 29.988281 22.660156 C 31.246094 21.332031 31.871094 19.78125 31.871094 17.988281 C 31.871094 16.25 31.253906 14.757812 30.023438 13.523438 C 28.789062 12.289062 27.046875 11.671875 24.804688 11.671875 L 13.679688 11.671875 L 13.679688 24.714844 Z M 0.84375 48.941406 L 0.84375 0.894531 L 24.804688 0.894531 C 30.84375 0.894531 35.667969 2.324219 39.285156 5.1875 C 42.902344 8.046875 44.707031 12.265625 44.707031 17.851562 C 44.707031 21.699219 43.816406 24.914062 42.035156 27.492188 C 40.253906 30.070312 37.835938 32.007812 34.792969 33.292969 C 31.753906 34.578125 28.375 35.210938 24.675781 35.210938 L 13.679688 35.210938 L 13.679688 48.941406 Z M 0.84375 48.941406 "/></clipPath><clipPath id="85b6628ba7"><rect x="0" width="45" y="0" height="49"/></clipPath><clipPath id="0664878733"><path d="M 75.21875 29.894531 L 114.820312 29.894531 L 114.820312 40.605469 L 75.21875 40.605469 Z M 75.21875 40.605469 L 87.777344 40.605469 L 87.777344 48.632812 L 75.21875 48.632812 Z M 75.21875 48.632812 L 113.71875 48.632812 L 113.71875 59.414062 L 75.21875 59.414062 Z M 75.21875 59.414062 L 87.777344 59.414062 L 87.777344 67.167969 L 75.21875 67.167969 Z M 75.21875 67.167969 L 114.820312 67.167969 L 114.820312 77.941406 L 75.21875 77.941406 Z M 75.21875 67.167969 "/></clipPath><clipPath id="876b5f1478"><path d="M 0.21875 0.894531 L 39.820312 0.894531 L 39.820312 11.605469 L 0.21875 11.605469 Z M 0.21875 11.605469 L 12.777344 11.605469 L 12.777344 19.632812 L 0.21875 19.632812 Z M 0.21875 19.632812 L 38.71875 19.632812 L 38.71875 30.414062 L 0.21875 30.414062 Z M 0.21875 30.414062 L 12.777344 30.414062 L 12.777344 38.167969 L 0.21875 38.167969 Z M 0.21875 38.167969 L 39.820312 38.167969 L 39.820312 48.941406 L 0.21875 48.941406 Z M 0.21875 38.167969 "/></clipPath><clipPath id="2a21da000d"><rect x="0" width="40" y="0" height="49"/></clipPath><clipPath id="186a764547"><path d="M 117.289062 29.316406 L 164 29.316406 L 164 78 L 117.289062 78 Z M 117.289062 29.316406 "/></clipPath><clipPath id="ee6112e43f"><path d="M 142.960938 51.375 C 144.925781 51.375 146.476562 50.851562 147.597656 49.800781 C 148.71875 48.746094 149.277344 47.511719 149.277344 46.089844 C 149.277344 44.625 148.695312 43.355469 147.53125 42.277344 C 146.363281 41.195312 144.753906 40.664062 142.6875 40.664062 L 130.539062 40.664062 L 130.539062 51.375 Z M 117.703125 77.941406 L 117.703125 29.894531 L 142.6875 29.894531 C 145.15625 29.894531 147.617188 30.210938 150.066406 30.851562 C 152.515625 31.496094 154.675781 32.550781 156.550781 34.007812 C 158.335938 35.429688 159.722656 37.21875 160.707031 39.398438 C 161.695312 41.574219 162.183594 43.773438 162.183594 46.019531 C 162.183594 48.351562 161.675781 50.585938 160.675781 52.710938 C 159.671875 54.835938 158.257812 56.644531 156.449219 58.136719 C 154.640625 59.628906 152.621094 60.597656 150.375 61.050781 L 163.417969 77.460938 L 163.417969 77.941406 L 148.445312 77.941406 L 136.511719 61.8125 L 130.539062 61.8125 L 130.539062 77.941406 Z M 117.703125 77.941406 "/></clipPath><clipPath id="86dc01b00d"><path d="M 0.683594 0.71875 L 46.648438 0.71875 L 46.648438 49 L 0.683594 49 Z M 0.683594 0.71875 "/></clipPath><clipPath id="ad0355f72c"><path d="M 25.960938 22.375 C 27.925781 22.375 29.476562 21.851562 30.597656 20.800781 C 31.71875 19.746094 32.277344 18.511719 32.277344 17.089844 C 32.277344 15.625 31.695312 14.355469 30.53125 13.277344 C 29.363281 12.195312 27.753906 11.664062 25.6875 11.664062 L 13.539062 11.664062 L 13.539062 22.375 Z M 0.703125 48.941406 L 0.703125 0.894531 L 25.6875 0.894531 C 28.15625 0.894531 30.617188 1.210938 33.066406 1.851562 C 35.515625 2.496094 37.675781 3.550781 39.550781 5.007812 C 41.335938 6.429688 42.722656 8.21875 43.707031 10.398438 C 44.695312 12.574219 45.183594 14.773438 45.183594 17.019531 C 45.183594 19.351562 44.675781 21.585938 43.675781 23.710938 C 42.671875 25.835938 41.257812 27.644531 39.449219 29.136719 C 37.640625 30.628906 35.621094 31.597656 33.375 32.050781 L 46.417969 48.460938 L 46.417969 48.941406 L 31.445312 48.941406 L 19.511719 32.8125 L 13.539062 32.8125 L 13.539062 48.941406 Z M 0.703125 48.941406 "/></clipPath><clipPath id="95122761ee"><rect x="0" width="47" y="0" height="49"/></clipPath><clipPath id="64b70e7737"><path d="M 29.777344 84.5625 L 69.3125 84.5625 L 69.3125 95.410156 L 29.777344 95.410156 Z M 29.777344 95.410156 L 42.75 95.410156 L 42.75 103.785156 L 29.777344 103.785156 Z M 29.777344 103.785156 L 67.875 103.785156 L 67.875 114.5625 L 29.777344 114.5625 Z M 29.777344 114.5625 L 42.75 114.5625 L 42.75 132.609375 L 29.777344 132.609375 Z M 29.777344 114.5625 "/></clipPath><clipPath id="d34969f32e"><path d="M 0.777344 0.5625 L 40.3125 0.5625 L 40.3125 11.410156 L 0.777344 11.410156 Z M 0.777344 11.410156 L 13.75 11.410156 L 13.75 19.785156 L 0.777344 19.785156 Z M 0.777344 19.785156 L 38.875 19.785156 L 38.875 30.5625 L 0.777344 30.5625 Z M 0.777344 30.5625 L 13.75 30.5625 L 13.75 48.609375 L 0.777344 48.609375 Z M 0.777344 30.5625 "/></clipPath><clipPath id="12a5fcf579"><rect x="0" width="41" y="0" height="49"/></clipPath><clipPath id="a058a64d4e"><path d="M 70.546875 83.070312 L 122.742188 83.070312 L 122.742188 134 L 70.546875 134 Z M 70.546875 83.070312 "/></clipPath><clipPath id="3aee3af25f"><path d="M 102.851562 120.765625 C 104.8125 119.695312 106.40625 118.109375 107.625 116.027344 C 108.839844 113.945312 109.441406 111.417969 109.441406 108.445312 C 109.441406 105.515625 108.832031 103.011719 107.625 100.929688 C 106.417969 98.847656 104.824219 97.28125 102.851562 96.226562 C 100.878906 95.171875 98.78125 94.648438 96.535156 94.648438 C 94.292969 94.648438 92.191406 95.171875 90.222656 96.226562 C 88.25 97.28125 86.664062 98.847656 85.449219 100.929688 C 84.230469 103.011719 83.632812 105.515625 83.632812 108.445312 C 83.632812 111.417969 84.238281 113.945312 85.449219 116.027344 C 86.65625 118.109375 88.25 119.6875 90.222656 120.765625 C 92.191406 121.847656 94.292969 122.378906 96.535156 122.378906 C 98.78125 122.378906 100.878906 121.835938 102.851562 120.765625 M 83.871094 130.894531 C 79.914062 128.976562 76.707031 126.105469 74.265625 122.285156 C 71.824219 118.460938 70.597656 113.851562 70.597656 108.453125 C 70.597656 103.097656 71.824219 98.539062 74.265625 94.761719 C 76.707031 90.980469 79.921875 88.136719 83.871094 86.21875 C 87.820312 84.296875 92.046875 83.335938 96.535156 83.335938 C 101.027344 83.335938 105.242188 84.296875 109.199219 86.21875 C 113.160156 88.136719 116.363281 90.988281 118.808594 94.761719 C 121.25 98.53125 122.484375 103.097656 122.484375 108.453125 C 122.484375 113.851562 121.257812 118.460938 118.808594 122.285156 C 116.355469 126.105469 113.152344 128.976562 109.199219 130.894531 C 105.25 132.816406 101.027344 133.773438 96.535156 133.773438 C 92.046875 133.773438 87.832031 132.816406 83.871094 130.894531 "/></clipPath><clipPath id="021152a817"><path d="M 0.546875 0.105469 L 52.710938 0.105469 L 52.710938 50.855469 L 0.546875 50.855469 Z M 0.546875 0.105469 "/></clipPath><clipPath id="f41047f747"><path d="M 32.851562 37.765625 C 34.8125 36.695312 36.40625 35.109375 37.625 33.027344 C 38.839844 30.945312 39.441406 28.417969 39.441406 25.445312 C 39.441406 22.515625 38.832031 20.011719 37.625 17.929688 C 36.417969 15.847656 34.824219 14.28125 32.851562 13.226562 C 30.878906 12.171875 28.78125 11.648438 26.535156 11.648438 C 24.292969 11.648438 22.191406 12.171875 20.222656 13.226562 C 18.25 14.28125 16.664062 15.847656 15.449219 17.929688 C 14.230469 20.011719 13.632812 22.515625 13.632812 25.445312 C 13.632812 28.417969 14.238281 30.945312 15.449219 33.027344 C 16.65625 35.109375 18.25 36.6875 20.222656 37.765625 C 22.191406 38.847656 24.292969 39.378906 26.535156 39.378906 C 28.78125 39.378906 30.878906 38.835938 32.851562 37.765625 M 13.871094 47.894531 C 9.914062 45.976562 6.707031 43.105469 4.265625 39.285156 C 1.824219 35.460938 0.597656 30.851562 0.597656 25.453125 C 0.597656 20.097656 1.824219 15.539062 4.265625 11.761719 C 6.707031 7.980469 9.921875 5.136719 13.871094 3.21875 C 17.820312 1.296875 22.046875 0.335938 26.535156 0.335938 C 31.027344 0.335938 35.242188 1.296875 39.199219 3.21875 C 43.160156 5.136719 46.363281 7.988281 48.808594 11.761719 C 51.25 15.53125 52.484375 20.097656 52.484375 25.453125 C 52.484375 30.851562 51.257812 35.460938 48.808594 39.285156 C 46.355469 43.105469 43.152344 45.976562 39.199219 47.894531 C 35.25 49.816406 31.027344 50.773438 26.535156 50.773438 C 22.046875 50.773438 17.832031 49.816406 13.871094 47.894531 "/></clipPath><clipPath id="eac4c45184"><rect x="0" width="53" y="0" height="51"/></clipPath><clipPath id="47eb143ade"><path d="M 124.300781 84 L 171 84 L 171 132.929688 L 124.300781 132.929688 Z M 124.300781 84 "/></clipPath><clipPath id="ab7c6cd46a"><path d="M 150.023438 106.046875 C 151.984375 106.046875 153.535156 105.523438 154.660156 104.46875 C 155.78125 103.414062 156.339844 102.179688 156.339844 100.757812 C 156.339844 99.292969 155.753906 98.023438 154.589844 96.945312 C 153.425781 95.867188 151.8125 95.335938 149.75 95.335938 L 137.605469 95.335938 L 137.605469 106.035156 Z M 124.761719 132.609375 L 124.761719 84.5625 L 149.75 84.5625 C 152.214844 84.5625 154.675781 84.878906 157.125 85.523438 C 159.578125 86.164062 161.738281 87.21875 163.613281 88.675781 C 165.394531 90.089844 166.785156 91.890625 167.769531 94.066406 C 168.753906 96.242188 169.242188 98.445312 169.242188 100.691406 C 169.242188 103.019531 168.738281 105.257812 167.734375 107.382812 C 166.734375 109.507812 165.320312 111.316406 163.511719 112.804688 C 161.703125 114.296875 159.679688 115.265625 157.433594 115.71875 L 170.476562 132.121094 L 170.476562 132.601562 L 155.515625 132.601562 L 143.570312 116.472656 L 137.597656 116.472656 L 137.597656 132.601562 Z M 124.761719 132.609375 "/></clipPath><clipPath id="e8fd888aec"><path d="M 0.625 0.539062 L 46.589844 0.539062 L 46.589844 48.660156 L 0.625 48.660156 Z M 0.625 0.539062 "/></clipPath><clipPath id="8f76b9ac0f"><path d="M 26.023438 22.046875 C 27.984375 22.046875 29.535156 21.523438 30.660156 20.46875 C 31.78125 19.414062 32.339844 18.179688 32.339844 16.757812 C 32.339844 15.292969 31.753906 14.023438 30.589844 12.945312 C 29.425781 11.867188 27.8125 11.335938 25.75 11.335938 L 13.605469 11.335938 L 13.605469 22.035156 Z M 0.761719 48.609375 L 0.761719 0.5625 L 25.75 0.5625 C 28.214844 0.5625 30.675781 0.878906 33.125 1.523438 C 35.578125 2.164062 37.738281 3.21875 39.613281 4.675781 C 41.394531 6.089844 42.785156 7.890625 43.769531 10.066406 C 44.753906 12.242188 45.242188 14.445312 45.242188 16.691406 C 45.242188 19.019531 44.738281 21.257812 43.734375 23.382812 C 42.734375 25.507812 41.320312 27.316406 39.511719 28.804688 C 37.703125 30.296875 35.679688 31.265625 33.433594 31.71875 L 46.476562 48.121094 L 46.476562 48.601562 L 31.515625 48.601562 L 19.570312 32.472656 L 13.597656 32.472656 L 13.597656 48.601562 Z M 0.761719 48.609375 "/></clipPath><clipPath id="ae2b82d498"><rect x="0" width="47" y="0" height="49"/></clipPath><clipPath id="b15defc20d"><path d="M 29.261719 139 L 86 139 L 86 187.460938 L 29.261719 187.460938 Z M 29.261719 139 "/></clipPath><clipPath id="9c79c57bae"><path d="M 29.777344 187.183594 L 29.777344 139.136719 L 41.445312 139.136719 L 57.640625 160.550781 L 66.21875 149.292969 L 73.972656 139.136719 L 85.441406 139.136719 L 85.441406 187.183594 L 72.542969 187.183594 L 72.542969 160.414062 C 67.367188 167.277344 63.554688 172.292969 61.078125 175.445312 L 54.078125 175.445312 L 42.679688 160.550781 L 42.679688 187.183594 Z M 29.777344 187.183594 "/></clipPath><clipPath id="b1164be726"><path d="M 0.582031 0.125 L 56.601562 0.125 L 56.601562 48.242188 L 0.582031 48.242188 Z M 0.582031 0.125 "/></clipPath><clipPath id="aea660f59b"><path d="M 0.777344 48.183594 L 0.777344 0.136719 L 12.445312 0.136719 L 28.640625 21.550781 L 37.21875 10.292969 L 44.972656 0.136719 L 56.441406 0.136719 L 56.441406 48.183594 L 43.542969 48.183594 L 43.542969 21.414062 C 38.367188 28.277344 34.554688 33.292969 32.078125 36.445312 L 25.078125 36.445312 L 13.679688 21.550781 L 13.679688 48.183594 Z M 0.777344 48.183594 "/></clipPath><clipPath id="d2ae356f36"><rect x="0" width="57" y="0" height="49"/></clipPath><clipPath id="235779afa9"><path d="M 86.128906 138.382812 L 145.335938 138.382812 L 145.335938 187.460938 L 86.128906 187.460938 Z M 86.128906 138.382812 "/></clipPath><clipPath id="597e994edc"><path d="M 112.292969 163.292969 L 110.511719 166.9375 L 121.15625 166.9375 L 119.507812 163.566406 L 115.9375 153.960938 Z M 100.28125 187.183594 L 86.828125 187.183594 L 86.828125 186.292969 L 110.777344 138.863281 L 121.144531 138.863281 L 145.164062 186.566406 L 145.164062 187.183594 L 131.308594 187.183594 L 126.433594 177.648438 L 105.15625 177.648438 Z M 100.28125 187.183594 "/></clipPath><clipPath id="daebc9e370"><path d="M 0.800781 0.644531 L 59.214844 0.644531 L 59.214844 49.242188 L 0.800781 49.242188 Z M 0.800781 0.644531 "/></clipPath><clipPath id="3f2733927c"><path d="M 26.292969 25.292969 L 24.511719 28.9375 L 35.15625 28.9375 L 33.507812 25.566406 L 29.9375 15.960938 Z M 14.28125 49.183594 L 0.828125 49.183594 L 0.828125 48.292969 L 24.777344 0.863281 L 35.144531 0.863281 L 59.164062 48.566406 L 59.164062 49.183594 L 45.308594 49.183594 L 40.433594 39.648438 L 19.15625 39.648438 Z M 14.28125 49.183594 "/></clipPath><clipPath id="0e67bde053"><rect x="0" width="60" y="0" height="50"/></clipPath><clipPath id="c1db8f6d7f"><path d="M 4.332031 4.390625 L 195.972656 4.390625 L 195.972656 212.390625 L 4.332031 212.390625 Z M 4.332031 4.390625 "/></clipPath><clipPath id="e65b9c44cd"><path d="M 7.910156 208.984375 L 192.394531 208.984375 L 192.394531 7.964844 L 7.910156 7.964844 Z M 195.574219 212.171875 L 4.71875 212.171875 L 4.71875 4.777344 L 195.582031 4.777344 Z M 195.574219 212.171875 "/></clipPath><clipPath id="74716a5c57"><path d="M 0.6875 0.582031 L 191.726562 0.582031 L 191.726562 208.378906 L 0.6875 208.378906 Z M 0.6875 0.582031 "/></clipPath><clipPath id="6ec5f73203"><path d="M 3.910156 204.984375 L 188.394531 204.984375 L 188.394531 3.964844 L 3.910156 3.964844 Z M 191.574219 208.171875 L 0.71875 208.171875 L 0.71875 0.777344 L 191.582031 0.777344 Z M 191.574219 208.171875 "/></clipPath><clipPath id="59fe27c1ba"><rect x="0" width="192" y="0" height="209"/></clipPath><clipPath id="16275f9ea7"><path d="M 163.332031 230.289062 L 165.691406 230.289062 L 165.691406 237.46875 L 163.332031 237.46875 Z M 163.332031 237.46875 L 169.316406 237.46875 L 169.316406 239.34375 L 163.332031 239.34375 Z M 163.332031 237.46875 "/></clipPath><clipPath id="c5d82a7504"><path d="M 0.332031 0.289062 L 2.691406 0.289062 L 2.691406 7.46875 L 0.332031 7.46875 Z M 0.332031 7.46875 L 6.316406 7.46875 L 6.316406 9.34375 L 0.332031 9.34375 Z M 0.332031 7.46875 "/></clipPath><clipPath id="8c69b23724"><rect x="0" width="7" y="0" height="10"/></clipPath><clipPath id="5b28458e52"><path d="M 207.515625 147.492188 L 214.28125 147.492188 L 214.28125 157.179688 L 207.515625 157.179688 Z M 207.515625 147.492188 "/></clipPath><clipPath id="becc387906"><path d="M 213.773438 147.769531 L 213.667969 148.652344 C 212.847656 148.601562 211.664062 148.53125 211.011719 148.53125 C 209.828125 148.53125 208.914062 148.824219 208.914062 150.132812 C 208.914062 150.949219 209.246094 151.238281 210.085938 151.460938 L 212.417969 152.140625 C 213.34375 152.429688 214.242188 153.054688 214.234375 154.640625 C 214.25 156.621094 212.75 157.152344 211.167969 157.167969 C 210.25 157.1875 208.714844 156.988281 207.535156 156.816406 L 207.628906 155.917969 C 209.023438 156.074219 210.121094 156.15625 210.882812 156.15625 C 212.179688 156.15625 213.050781 155.917969 213.050781 154.660156 C 213.050781 153.699219 212.554688 153.339844 211.871094 153.132812 L 209.445312 152.429688 C 208.339844 152.128906 207.714844 151.597656 207.695312 150.203125 C 207.695312 147.992188 209.222656 147.503906 210.722656 147.503906 C 211.648438 147.503906 212.914062 147.632812 213.773438 147.769531 "/></clipPath><clipPath id="5a94c36146"><path d="M 0.515625 0.503906 L 7.28125 0.503906 L 7.28125 10.179688 L 0.515625 10.179688 Z M 0.515625 0.503906 "/></clipPath><clipPath id="5d5f2d69fe"><path d="M 6.773438 0.769531 L 6.667969 1.652344 C 5.847656 1.601562 4.664062 1.53125 4.011719 1.53125 C 2.828125 1.53125 1.914062 1.824219 1.914062 3.132812 C 1.914062 3.949219 2.246094 4.238281 3.085938 4.460938 L 5.417969 5.140625 C 6.34375 5.429688 7.242188 6.054688 7.234375 7.640625 C 7.25 9.621094 5.75 10.152344 4.167969 10.167969 C 3.25 10.1875 1.714844 9.988281 0.535156 9.816406 L 0.628906 8.917969 C 2.023438 9.074219 3.121094 9.15625 3.882812 9.15625 C 5.179688 9.15625 6.050781 8.917969 6.050781 7.660156 C 6.050781 6.699219 5.554688 6.339844 4.871094 6.132812 L 2.445312 5.429688 C 1.339844 5.128906 0.714844 4.597656 0.695312 3.203125 C 0.695312 0.992188 2.222656 0.503906 3.722656 0.503906 C 4.648438 0.503906 5.914062 0.632812 6.773438 0.769531 "/></clipPath><clipPath id="d483b36807"><rect x="0" width="8" y="0" height="11"/></clipPath><clipPath id="0200ef69f4"><path d="M 219.265625 147.707031 L 226.601562 147.707031 L 226.601562 157.179688 L 219.265625 157.179688 Z M 219.265625 147.707031 "/></clipPath><clipPath id="c70ec30942"><path d="M 220.488281 152.96875 C 220.488281 155.421875 220.960938 156.167969 222.984375 156.167969 C 224.960938 156.167969 225.425781 155.257812 225.425781 152.996094 L 225.425781 147.726562 L 226.582031 147.726562 L 226.582031 152.996094 C 226.582031 155.902344 225.828125 157.167969 223 157.167969 C 220.128906 157.167969 219.324219 156.113281 219.324219 152.96875 L 219.324219 147.726562 L 220.496094 147.726562 Z M 220.488281 152.96875 "/></clipPath><clipPath id="cb5f929ed2"><path d="M 0.265625 0.707031 L 7.601562 0.707031 L 7.601562 10.179688 L 0.265625 10.179688 Z M 0.265625 0.707031 "/></clipPath><clipPath id="550cc9ba99"><path d="M 1.488281 5.96875 C 1.488281 8.421875 1.960938 9.167969 3.984375 9.167969 C 5.960938 9.167969 6.425781 8.257812 6.425781 5.996094 L 6.425781 0.726562 L 7.582031 0.726562 L 7.582031 5.996094 C 7.582031 8.902344 6.828125 10.167969 4 10.167969 C 1.128906 10.167969 0.324219 9.113281 0.324219 5.96875 L 0.324219 0.726562 L 1.496094 0.726562 Z M 1.488281 5.96875 "/></clipPath><clipPath id="2cddb31ce5"><rect x="0" width="8" y="0" height="11"/></clipPath><clipPath id="6412223a01"><path d="M 232.15625 147.707031 L 238.851562 147.707031 L 238.851562 156.964844 L 232.15625 156.964844 Z M 232.15625 147.707031 "/></clipPath><clipPath id="42e1d39bac"><path d="M 233.386719 148.660156 L 233.386719 152.457031 C 233.933594 152.523438 234.480469 152.558594 235.535156 152.558594 C 237.105469 152.558594 237.660156 151.898438 237.660156 150.640625 C 237.660156 149.234375 237.15625 148.667969 235.542969 148.667969 Z M 235.800781 147.726562 C 238.03125 147.726562 238.792969 148.632812 238.792969 150.648438 C 238.792969 152.449219 237.96875 153.492188 235.792969 153.492188 C 234.644531 153.492188 234.003906 153.457031 233.394531 153.390625 L 233.394531 156.945312 L 232.21875 156.945312 L 232.21875 147.726562 Z M 235.800781 147.726562 "/></clipPath><clipPath id="f8e9a5ab82"><path d="M 0.15625 0.707031 L 6.820312 0.707031 L 6.820312 9.964844 L 0.15625 9.964844 Z M 0.15625 0.707031 "/></clipPath><clipPath id="eebf7b51c8"><path d="M 1.386719 1.660156 L 1.386719 5.457031 C 1.933594 5.523438 2.480469 5.558594 3.535156 5.558594 C 5.105469 5.558594 5.660156 4.898438 5.660156 3.640625 C 5.660156 2.234375 5.15625 1.667969 3.542969 1.667969 Z M 3.800781 0.726562 C 6.03125 0.726562 6.792969 1.632812 6.792969 3.648438 C 6.792969 5.449219 5.96875 6.492188 3.792969 6.492188 C 2.644531 6.492188 2.003906 6.457031 1.394531 6.390625 L 1.394531 9.945312 L 0.21875 9.945312 L 0.21875 0.726562 Z M 3.800781 0.726562 "/></clipPath><clipPath id="a53c2a4930"><rect x="0" width="7" y="0" height="10"/></clipPath><clipPath id="5e5cb17b7f"><path d="M 244.121094 147.707031 L 250.175781 147.707031 L 250.175781 156.964844 L 244.121094 156.964844 Z M 244.121094 147.707031 "/></clipPath><clipPath id="f83968dfec"><path d="M 250.035156 148.6875 L 245.328125 148.6875 L 245.328125 151.71875 L 249.582031 151.71875 L 249.582031 152.628906 L 245.328125 152.628906 L 245.328125 155.988281 L 250.152344 155.988281 L 250.152344 156.945312 L 244.171875 156.945312 L 244.171875 147.726562 L 250.042969 147.726562 Z M 250.035156 148.6875 "/></clipPath><clipPath id="a4f3db2d86"><path d="M 0.121094 0.707031 L 6.175781 0.707031 L 6.175781 9.964844 L 0.121094 9.964844 Z M 0.121094 0.707031 "/></clipPath><clipPath id="e956b0331b"><path d="M 6.035156 1.6875 L 1.328125 1.6875 L 1.328125 4.71875 L 5.582031 4.71875 L 5.582031 5.628906 L 1.328125 5.628906 L 1.328125 8.988281 L 6.152344 8.988281 L 6.152344 9.945312 L 0.171875 9.945312 L 0.171875 0.726562 L 6.042969 0.726562 Z M 6.035156 1.6875 "/></clipPath><clipPath id="362c93bbe6"><rect x="0" width="7" y="0" height="10"/></clipPath><clipPath id="2da9209e57"><path d="M 255.230469 147.707031 L 262.140625 147.707031 L 262.140625 156.964844 L 255.230469 156.964844 Z M 255.230469 147.707031 "/></clipPath><clipPath id="aa65b46c16"><path d="M 256.410156 148.660156 L 256.410156 152.25 C 256.941406 152.300781 257.488281 152.351562 258.527344 152.351562 C 260.09375 152.351562 260.632812 151.71875 260.632812 150.527344 C 260.632812 149.199219 260.136719 148.660156 258.535156 148.660156 Z M 261.765625 150.398438 C 261.765625 151.632812 261.3125 152.480469 260.164062 152.824219 C 260.632812 153.039062 261.035156 153.441406 261.242188 154.117188 L 262.132812 156.945312 L 260.90625 156.945312 L 260.078125 154.296875 C 259.828125 153.5625 259.425781 153.289062 258.851562 153.289062 L 258.378906 153.289062 C 257.429688 153.289062 256.921875 153.261719 256.410156 153.210938 L 256.410156 156.945312 L 255.242188 156.945312 L 255.242188 147.726562 L 258.773438 147.726562 C 261.003906 147.726562 261.765625 148.558594 261.765625 150.398438 "/></clipPath><clipPath id="8aa1988d3f"><path d="M 0.230469 0.707031 L 7.140625 0.707031 L 7.140625 9.964844 L 0.230469 9.964844 Z M 0.230469 0.707031 "/></clipPath><clipPath id="7433729829"><path d="M 1.410156 1.660156 L 1.410156 5.25 C 1.941406 5.300781 2.488281 5.351562 3.527344 5.351562 C 5.09375 5.351562 5.632812 4.71875 5.632812 3.527344 C 5.632812 2.199219 5.136719 1.660156 3.535156 1.660156 Z M 6.765625 3.398438 C 6.765625 4.632812 6.3125 5.480469 5.164062 5.824219 C 5.632812 6.039062 6.035156 6.441406 6.242188 7.117188 L 7.132812 9.945312 L 5.90625 9.945312 L 5.078125 7.296875 C 4.828125 6.5625 4.425781 6.289062 3.851562 6.289062 L 3.378906 6.289062 C 2.429688 6.289062 1.921875 6.261719 1.410156 6.210938 L 1.410156 9.945312 L 0.242188 9.945312 L 0.242188 0.726562 L 3.773438 0.726562 C 6.003906 0.726562 6.765625 1.558594 6.765625 3.398438 "/></clipPath><clipPath id="5a7e802a4b"><rect x="0" width="8" y="0" height="10"/></clipPath><clipPath id="807ac71ab1"><path d="M 208.074219 176.917969 L 214.757812 176.917969 L 214.757812 186.203125 L 208.074219 186.203125 Z M 208.074219 176.917969 "/></clipPath><clipPath id="c94375c5f4"><path d="M 209.292969 177.917969 L 209.292969 181.710938 C 209.84375 181.78125 210.390625 181.816406 211.445312 181.816406 C 213.011719 181.816406 213.570312 181.15625 213.570312 179.894531 C 213.570312 178.492188 213.066406 177.925781 211.453125 177.925781 Z M 211.710938 176.980469 C 213.9375 176.980469 214.703125 177.890625 214.703125 179.902344 C 214.703125 181.703125 213.878906 182.75 211.703125 182.75 C 210.554688 182.75 209.910156 182.714844 209.304688 182.644531 L 209.304688 186.203125 L 208.136719 186.203125 L 208.136719 176.980469 Z M 211.710938 176.980469 "/></clipPath><clipPath id="108d3401a5"><path d="M 0.0742188 0.949219 L 6.757812 0.949219 L 6.757812 10.203125 L 0.0742188 10.203125 Z M 0.0742188 0.949219 "/></clipPath><clipPath id="0a68d0347f"><path d="M 1.292969 1.917969 L 1.292969 5.710938 C 1.84375 5.78125 2.390625 5.816406 3.445312 5.816406 C 5.011719 5.816406 5.570312 5.15625 5.570312 3.894531 C 5.570312 2.492188 5.066406 1.925781 3.453125 1.925781 Z M 3.710938 0.980469 C 5.9375 0.980469 6.703125 1.890625 6.703125 3.902344 C 6.703125 5.703125 5.878906 6.75 3.703125 6.75 C 2.554688 6.75 1.910156 6.714844 1.304688 6.644531 L 1.304688 10.203125 L 0.136719 10.203125 L 0.136719 0.980469 Z M 3.710938 0.980469 "/></clipPath><clipPath id="af24be201c"><rect x="0" width="7" y="0" height="11"/></clipPath><clipPath id="3bdad3102e"><path d="M 220.03125 176.917969 L 226.996094 176.917969 L 226.996094 186.203125 L 220.03125 186.203125 Z M 220.03125 176.917969 "/></clipPath><clipPath id="a823a30e59"><path d="M 221.246094 177.917969 L 221.246094 181.507812 C 221.777344 181.558594 222.328125 181.609375 223.363281 181.609375 C 224.933594 181.609375 225.472656 180.976562 225.472656 179.785156 C 225.472656 178.457031 224.976562 177.917969 223.371094 177.917969 Z M 226.613281 179.65625 C 226.613281 180.890625 226.15625 181.738281 225.007812 182.082031 C 225.480469 182.292969 225.882812 182.699219 226.089844 183.375 L 226.980469 186.203125 L 225.746094 186.203125 L 224.914062 183.554688 C 224.667969 182.816406 224.265625 182.542969 223.691406 182.542969 L 223.21875 182.542969 C 222.265625 182.542969 221.761719 182.519531 221.246094 182.464844 L 221.246094 186.203125 L 220.089844 186.203125 L 220.089844 176.980469 L 223.621094 176.980469 C 225.847656 176.980469 226.613281 177.8125 226.613281 179.65625 "/></clipPath><clipPath id="f364ecb35f"><path d="M 0.03125 0.949219 L 6.996094 0.949219 L 6.996094 10.203125 L 0.03125 10.203125 Z M 0.03125 0.949219 "/></clipPath><clipPath id="4347de00d8"><path d="M 1.246094 1.917969 L 1.246094 5.507812 C 1.777344 5.558594 2.328125 5.609375 3.363281 5.609375 C 4.933594 5.609375 5.472656 4.976562 5.472656 3.785156 C 5.472656 2.457031 4.976562 1.917969 3.371094 1.917969 Z M 6.613281 3.65625 C 6.613281 4.890625 6.15625 5.738281 5.007812 6.082031 C 5.480469 6.292969 5.882812 6.699219 6.089844 7.375 L 6.980469 10.203125 L 5.746094 10.203125 L 4.914062 7.554688 C 4.667969 6.816406 4.265625 6.542969 3.691406 6.542969 L 3.21875 6.542969 C 2.265625 6.542969 1.761719 6.519531 1.246094 6.464844 L 1.246094 10.203125 L 0.0898438 10.203125 L 0.0898438 0.980469 L 3.621094 0.980469 C 5.847656 0.980469 6.613281 1.8125 6.613281 3.65625 "/></clipPath><clipPath id="bd92751fff"><rect x="0" width="7" y="0" height="11"/></clipPath><clipPath id="4376c61c56"><path d="M 231.984375 176.980469 L 237.855469 176.980469 L 237.855469 177.941406 L 231.984375 177.941406 Z M 231.984375 177.941406 L 233.148438 177.941406 L 233.148438 180.976562 L 231.984375 180.976562 Z M 231.984375 180.976562 L 237.398438 180.976562 L 237.398438 181.882812 L 231.984375 181.882812 Z M 231.984375 181.882812 L 233.148438 181.882812 L 233.148438 185.242188 L 231.984375 185.242188 Z M 231.984375 185.242188 L 237.972656 185.242188 L 237.972656 186.203125 L 231.984375 186.203125 Z M 231.984375 185.242188 "/></clipPath><clipPath id="df0f6eb731"><path d="M 0.984375 0.980469 L 6.855469 0.980469 L 6.855469 1.941406 L 0.984375 1.941406 Z M 0.984375 1.941406 L 2.148438 1.941406 L 2.148438 4.976562 L 0.984375 4.976562 Z M 0.984375 4.976562 L 6.398438 4.976562 L 6.398438 5.882812 L 0.984375 5.882812 Z M 0.984375 5.882812 L 2.148438 5.882812 L 2.148438 9.242188 L 0.984375 9.242188 Z M 0.984375 9.242188 L 6.972656 9.242188 L 6.972656 10.203125 L 0.984375 10.203125 Z M 0.984375 9.242188 "/></clipPath><clipPath id="da859637f5"><rect x="0" width="7" y="0" height="11"/></clipPath><clipPath id="7724978cd0"><path d="M 242.964844 176.917969 L 252.671875 176.917969 L 252.671875 186.203125 L 242.964844 186.203125 Z M 242.964844 176.917969 "/></clipPath><clipPath id="6f6124c9b4"><path d="M 252.617188 186.203125 L 251.5625 186.203125 L 251.214844 178.351562 L 248.460938 184.738281 L 247.160156 184.738281 L 244.410156 178.394531 L 244.066406 186.203125 L 242.996094 186.203125 L 243.398438 176.980469 L 245.019531 176.980469 L 247.792969 183.75 L 250.597656 176.980469 L 252.214844 176.980469 Z M 252.617188 186.203125 "/></clipPath><clipPath id="83d780978f"><path d="M 0.964844 0.949219 L 10.671875 0.949219 L 10.671875 10.203125 L 0.964844 10.203125 Z M 0.964844 0.949219 "/></clipPath><clipPath id="c5806223cb"><path d="M 10.617188 10.203125 L 9.5625 10.203125 L 9.214844 2.351562 L 6.460938 8.738281 L 5.160156 8.738281 L 2.410156 2.394531 L 2.066406 10.203125 L 0.996094 10.203125 L 1.398438 0.980469 L 3.019531 0.980469 L 5.792969 7.75 L 8.597656 0.980469 L 10.214844 0.980469 Z M 10.617188 10.203125 "/></clipPath><clipPath id="5b209a18a5"><rect x="0" width="11" y="0" height="11"/></clipPath><clipPath id="9c182d81f6"><path d="M 258.265625 176.980469 L 259.421875 176.980469 L 259.421875 186.203125 L 258.265625 186.203125 Z M 258.265625 176.980469 "/></clipPath><clipPath id="73071c2118"><path d="M 0.265625 0.980469 L 1.421875 0.980469 L 1.421875 10.203125 L 0.265625 10.203125 Z M 0.265625 0.980469 "/></clipPath><clipPath id="f32ac36ad3"><rect x="0" width="2" y="0" height="11"/></clipPath><clipPath id="2ba0e7082c"><path d="M 265.054688 176.917969 L 272.4375 176.917969 L 272.4375 186.484375 L 265.054688 186.484375 Z M 265.054688 176.917969 "/></clipPath><clipPath id="c8d137a230"><path d="M 266.285156 182.226562 C 266.285156 184.675781 266.757812 185.421875 268.777344 185.421875 C 270.757812 185.421875 271.222656 184.515625 271.222656 182.253906 L 271.222656 176.980469 L 272.378906 176.980469 L 272.378906 182.253906 C 272.378906 185.15625 271.625 186.425781 268.796875 186.425781 C 265.925781 186.425781 265.121094 185.371094 265.121094 182.226562 L 265.121094 176.980469 L 266.292969 176.980469 Z M 266.285156 182.226562 "/></clipPath><clipPath id="105ce5b0c1"><path d="M 0.0546875 0.949219 L 7.4375 0.949219 L 7.4375 10.484375 L 0.0546875 10.484375 Z M 0.0546875 0.949219 "/></clipPath><clipPath id="df9f3c85e6"><path d="M 1.285156 6.226562 C 1.285156 8.675781 1.757812 9.421875 3.777344 9.421875 C 5.757812 9.421875 6.222656 8.515625 6.222656 6.253906 L 6.222656 0.980469 L 7.378906 0.980469 L 7.378906 6.253906 C 7.378906 9.15625 6.625 10.425781 3.796875 10.425781 C 0.925781 10.425781 0.121094 9.371094 0.121094 6.226562 L 0.121094 0.980469 L 1.292969 0.980469 Z M 1.285156 6.226562 "/></clipPath><clipPath id="5e97cb139f"><rect x="0" width="8" y="0" height="11"/></clipPath><clipPath id="9769cc7187"><path d="M 277.925781 176.917969 L 287.632812 176.917969 L 287.632812 186.203125 L 277.925781 186.203125 Z M 277.925781 176.917969 "/></clipPath><clipPath id="732a7cb8a6"><path d="M 287.570312 186.203125 L 286.515625 186.203125 L 286.164062 178.351562 L 283.414062 184.738281 L 282.113281 184.738281 L 279.363281 178.394531 L 279.019531 186.203125 L 277.949219 186.203125 L 278.351562 176.980469 L 279.96875 176.980469 L 282.746094 183.75 L 285.546875 176.980469 L 287.167969 176.980469 Z M 287.570312 186.203125 "/></clipPath><clipPath id="fef08ed413"><path d="M 0.925781 0.949219 L 10.632812 0.949219 L 10.632812 10.203125 L 0.925781 10.203125 Z M 0.925781 0.949219 "/></clipPath><clipPath id="f9141461f3"><path d="M 10.570312 10.203125 L 9.515625 10.203125 L 9.164062 2.351562 L 6.414062 8.738281 L 5.113281 8.738281 L 2.363281 2.394531 L 2.019531 10.203125 L 0.949219 10.203125 L 1.351562 0.980469 L 2.96875 0.980469 L 5.746094 7.75 L 8.546875 0.980469 L 10.167969 0.980469 Z M 10.570312 10.203125 "/></clipPath><clipPath id="9d5dd3603a"><rect x="0" width="11" y="0" height="11"/></clipPath><clipPath id="2bd96d85b6"><path d="M 207.433594 118.449219 L 215.765625 118.449219 L 215.765625 127.710938 L 207.433594 127.710938 Z M 207.433594 118.449219 "/></clipPath><clipPath id="38f786be47"><path d="M 209.914062 124.109375 L 213.273438 124.109375 L 211.59375 119.472656 Z M 215.742188 127.691406 L 214.515625 127.691406 L 213.539062 125.0625 L 209.640625 125.0625 L 208.671875 127.691406 L 207.445312 127.691406 L 210.796875 118.472656 L 212.398438 118.472656 Z M 215.742188 127.691406 "/></clipPath><clipPath id="3856592064"><path d="M 0.433594 0.449219 L 8.765625 0.449219 L 8.765625 9.710938 L 0.433594 9.710938 Z M 0.433594 0.449219 "/></clipPath><clipPath id="4512c4cedb"><path d="M 2.914062 6.109375 L 6.273438 6.109375 L 4.59375 1.472656 Z M 8.742188 9.691406 L 7.515625 9.691406 L 6.539062 7.0625 L 2.640625 7.0625 L 1.671875 9.691406 L 0.445312 9.691406 L 3.796875 0.472656 L 5.398438 0.472656 Z M 8.742188 9.691406 "/></clipPath><clipPath id="ec78550a64"><rect x="0" width="9" y="0" height="10"/></clipPath><clipPath id="27a183a831"><path d="M 220.679688 118.449219 L 226.304688 118.449219 L 226.304688 127.710938 L 220.679688 127.710938 Z M 220.679688 118.449219 "/></clipPath><clipPath id="6e74f1fbf8"><path d="M 221.902344 126.722656 L 226.253906 126.722656 L 226.253906 127.683594 L 220.738281 127.683594 L 220.738281 118.472656 L 221.894531 118.472656 Z M 221.902344 126.722656 "/></clipPath><clipPath id="f448c3c34b"><path d="M 0.679688 0.449219 L 6.304688 0.449219 L 6.304688 9.710938 L 0.679688 9.710938 Z M 0.679688 0.449219 "/></clipPath><clipPath id="61afb19bdc"><path d="M 1.902344 8.722656 L 6.253906 8.722656 L 6.253906 9.683594 L 0.738281 9.683594 L 0.738281 0.472656 L 1.894531 0.472656 Z M 1.902344 8.722656 "/></clipPath><clipPath id="d60c5fd1d8"><rect x="0" width="7" y="0" height="10"/></clipPath><clipPath id="e10875cbe3"><path d="M 231.257812 118.472656 L 232.414062 118.472656 L 232.414062 127.691406 L 231.257812 127.691406 Z M 231.257812 118.472656 "/></clipPath><clipPath id="3e7fd584fa"><path d="M 0.257812 0.472656 L 1.414062 0.472656 L 1.414062 9.691406 L 0.257812 9.691406 Z M 0.257812 0.472656 "/></clipPath><clipPath id="37739085f3"><rect x="0" width="2" y="0" height="10"/></clipPath><clipPath id="01c93b2fa0"><path d="M 238 118.449219 L 247.671875 118.449219 L 247.671875 127.710938 L 238 127.710938 Z M 238 118.449219 "/></clipPath><clipPath id="d2fdf12e5a"><path d="M 247.660156 127.691406 L 246.605469 127.691406 L 246.253906 119.84375 L 243.503906 126.226562 L 242.203125 126.226562 L 239.449219 119.886719 L 239.109375 127.691406 L 238.035156 127.691406 L 238.441406 118.472656 L 240.058594 118.472656 L 242.835938 125.242188 L 245.636719 118.472656 L 247.257812 118.472656 Z M 247.660156 127.691406 "/></clipPath><clipPath id="3146134864"><path d="M 0 0.449219 L 9.671875 0.449219 L 9.671875 9.710938 L 0 9.710938 Z M 0 0.449219 "/></clipPath><clipPath id="3143574d00"><path d="M 9.660156 9.691406 L 8.605469 9.691406 L 8.253906 1.84375 L 5.503906 8.226562 L 4.203125 8.226562 L 1.449219 1.886719 L 1.109375 9.691406 L 0.0351562 9.691406 L 0.441406 0.472656 L 2.058594 0.472656 L 4.835938 7.242188 L 7.636719 0.472656 L 9.257812 0.472656 Z M 9.660156 9.691406 "/></clipPath><clipPath id="992a8d0303"><rect x="0" width="10" y="0" height="10"/></clipPath><clipPath id="5ba4b33bde"><path d="M 253.296875 118.449219 L 259.351562 118.449219 L 259.351562 127.710938 L 253.296875 127.710938 Z M 253.296875 118.449219 "/></clipPath><clipPath id="b8ceb88814"><path d="M 259.167969 119.429688 L 254.464844 119.429688 L 254.464844 122.464844 L 258.714844 122.464844 L 258.714844 123.375 L 254.464844 123.375 L 254.464844 126.730469 L 259.289062 126.730469 L 259.289062 127.691406 L 253.308594 127.691406 L 253.308594 118.472656 L 259.175781 118.472656 Z M 259.167969 119.429688 "/></clipPath><clipPath id="1a4a5a2b17"><path d="M 0.296875 0.449219 L 6.351562 0.449219 L 6.351562 9.710938 L 0.296875 9.710938 Z M 0.296875 0.449219 "/></clipPath><clipPath id="3d270ca5f3"><path d="M 6.167969 1.429688 L 1.464844 1.429688 L 1.464844 4.464844 L 5.714844 4.464844 L 5.714844 5.375 L 1.464844 5.375 L 1.464844 8.730469 L 6.289062 8.730469 L 6.289062 9.691406 L 0.308594 9.691406 L 0.308594 0.472656 L 6.175781 0.472656 Z M 6.167969 1.429688 "/></clipPath><clipPath id="5945caab9b"><rect x="0" width="7" y="0" height="10"/></clipPath><clipPath id="59766cb684"><path d="M 264.265625 118.449219 L 271.457031 118.449219 L 271.457031 127.710938 L 264.265625 127.710938 Z M 264.265625 118.449219 "/></clipPath><clipPath id="63cc791d9c"><path d="M 271.445312 127.691406 L 269.972656 127.691406 L 265.414062 119.988281 L 265.414062 127.691406 L 264.316406 127.691406 L 264.316406 118.472656 L 265.792969 118.472656 L 270.367188 126.199219 L 270.367188 118.472656 L 271.445312 118.472656 Z M 271.445312 127.691406 "/></clipPath><clipPath id="2231452398"><path d="M 0.265625 0.449219 L 7.457031 0.449219 L 7.457031 9.710938 L 0.265625 9.710938 Z M 0.265625 0.449219 "/></clipPath><clipPath id="f112ccfe61"><path d="M 7.445312 9.691406 L 5.972656 9.691406 L 1.414062 1.988281 L 1.414062 9.691406 L 0.316406 9.691406 L 0.316406 0.472656 L 1.792969 0.472656 L 6.367188 8.199219 L 6.367188 0.472656 L 7.445312 0.472656 Z M 7.445312 9.691406 "/></clipPath><clipPath id="ae42b73811"><rect x="0" width="8" y="0" height="10"/></clipPath><clipPath id="4022585a45"><path d="M 276.398438 118.472656 L 283.296875 118.472656 L 283.296875 119.429688 L 276.398438 119.429688 Z M 279.261719 119.429688 L 280.410156 119.429688 L 280.410156 127.683594 L 279.261719 127.683594 Z M 279.261719 119.429688 "/></clipPath><clipPath id="50e2065d40"><path d="M 0.398438 0.472656 L 7.296875 0.472656 L 7.296875 1.429688 L 0.398438 1.429688 Z M 3.261719 1.429688 L 4.410156 1.429688 L 4.410156 9.683594 L 3.261719 9.683594 Z M 3.261719 1.429688 "/></clipPath><clipPath id="5abf3df755"><rect x="0" width="8" y="0" height="10"/></clipPath><clipPath id="956c79b821"><path d="M 287.339844 118.238281 L 295.457031 118.238281 L 295.457031 127.921875 L 287.339844 127.921875 Z M 287.339844 118.238281 "/></clipPath><clipPath id="bbb50ccd23"><path d="M 288.59375 122.910156 C 288.59375 125.96875 289.148438 126.910156 291.421875 126.910156 C 293.640625 126.910156 294.1875 125.78125 294.1875 122.953125 C 294.1875 120.210938 293.21875 119.25 291.421875 119.25 C 289.382812 119.25 288.59375 120.132812 288.59375 122.910156 M 295.398438 122.925781 C 295.398438 126.40625 294.566406 127.914062 291.421875 127.914062 C 288.25 127.914062 287.367188 126.628906 287.367188 122.882812 C 287.367188 119.40625 288.636719 118.242188 291.421875 118.25 C 293.949219 118.25 295.398438 119.515625 295.398438 122.917969 "/></clipPath><clipPath id="6f96030f6a"><path d="M 0.339844 0.238281 L 8.457031 0.238281 L 8.457031 9.921875 L 0.339844 9.921875 Z M 0.339844 0.238281 "/></clipPath><clipPath id="9a02c83875"><path d="M 1.59375 4.910156 C 1.59375 7.96875 2.148438 8.910156 4.421875 8.910156 C 6.640625 8.910156 7.1875 7.78125 7.1875 4.953125 C 7.1875 2.210938 6.21875 1.25 4.421875 1.25 C 2.382812 1.25 1.59375 2.132812 1.59375 4.910156 M 8.398438 4.925781 C 8.398438 8.40625 7.566406 9.914062 4.421875 9.914062 C 1.25 9.914062 0.367188 8.628906 0.367188 4.882812 C 0.367188 1.40625 1.636719 0.242188 4.421875 0.25 C 6.949219 0.25 8.398438 1.515625 8.398438 4.917969 "/></clipPath><clipPath id="9e11c979bb"><rect x="0" width="9" y="0" height="10"/></clipPath><clipPath id="eda667521f"><rect x="0" width="300" y="0" height="240"/></clipPath></defs><g id="cfe7346d2b"><g transform="matrix(1,0,0,1,37,67)"><g clip-path="url(#eda667521f)"><g clip-rule="nonzero" clip-path="url(#4964ad49ef)"><g clip-rule="nonzero" clip-path="url(#fa0e8462fc)"><g transform="matrix(1,0,0,1,28,230)"><g id="3fad6b6563" clip-path="url(#20bb9c6833)"><g clip-rule="nonzero" clip-path="url(#7e15865fcc)"><g clip-rule="nonzero" clip-path="url(#673f17d104)"><path style=" stroke:none;fill-rule:nonzero;fill:#124734;fill-opacity:1;" d="M 0.8125 0.289062 L 8.730469 0.289062 L 8.730469 9.355469 L 0.8125 9.355469 Z M 0.8125 0.289062 "/></g></g></g></g></g></g><g clip-rule="nonzero" clip-path="url(#44127eaa28)"><g clip-rule="nonzero" clip-path="url(#e47906a518)"><g transform="matrix(1,0,0,1,51,230)"><g id="d3ee065d89" clip-path="url(#6154671287)"><g clip-rule="nonzero" clip-path="url(#7e4eb3bd03)"><g clip-rule="nonzero" clip-path="url(#da9e3c6c1e)"><path style=" stroke:none;fill-rule:nonzero;fill:#124734;fill-opacity:1;" d="M 0.242188 0.289062 L 9.222656 0.289062 L 9.222656 9.339844 L 0.242188 9.339844 Z M 0.242188 0.289062 "/></g></g></g></g></g></g><g clip-rule="nonzero" clip-path="url(#fbc8a53972)"><g transform="matrix(1,0,0,1,73,230)"><g id="4334f3d7f6" clip-path="url(#c3bb8005fd)"><g clip-rule="nonzero" clip-path="url(#1baf343160)"><path style=" stroke:none;fill-rule:nonzero;fill:#124734;fill-opacity:1;" d="M 0.308594 0.289062 L 7.644531 0.289062 L 7.644531 9.347656 L 0.308594 9.347656 Z M 0.308594 0.289062 "/></g></g></g></g><g clip-rule="nonzero" clip-path="url(#c639de783e)"><g clip-rule="nonzero" clip-path="url(#fe821c06fa)"><g transform="matrix(1,0,0,1,95,230)"><g id="10a1cafd77" clip-path="url(#dec5942150)"><g clip-rule="nonzero" clip-path="url(#93adc54b58)"><g clip-rule="nonzero" clip-path="url(#5231f71a2e)"><path style=" stroke:none;fill-rule:nonzero;fill:#124734;fill-opacity:1;" d="M 0.21875 0.289062 L 7.933594 0.289062 L 7.933594 9.570312 L 0.21875 9.570312 Z M 0.21875 0.289062 "/></g></g></g></g></g></g><g clip-rule="nonzero" clip-path="url(#67c160674e)"><g clip-rule="nonzero" clip-path="url(#364fbd1edb)"><g transform="matrix(1,0,0,1,117,230)"><g id="56fb283e71" clip-path="url(#1f20d94ef1)"><g clip-rule="nonzero" clip-path="url(#e72725bfcf)"><g clip-rule="nonzero" clip-path="url(#695a4a522b)"><path style=" stroke:none;fill-rule:nonzero;fill:#124734;fill-opacity:1;" d="M 0.917969 0.289062 L 8.660156 0.289062 L 8.660156 9.359375 L 0.917969 9.359375 Z M 0.917969 0.289062 "/></g></g></g></g></g></g><g clip-rule="nonzero" clip-path="url(#b79f14cf88)"><g clip-rule="nonzero" clip-path="url(#1fe4de1bc5)"><g transform="matrix(1,0,0,1,139,230)"><g id="ff1f62b3fa" clip-path="url(#cd1ff9171d)"><g clip-rule="nonzero" clip-path="url(#5e877aba2e)"><g clip-rule="nonzero" clip-path="url(#d1909b952d)"><path style=" stroke:none;fill-rule:nonzero;fill:#124734;fill-opacity:1;" d="M 0.765625 0.289062 L 9.75 0.289062 L 9.75 9.339844 L 0.765625 9.339844 Z M 0.765625 0.289062 "/></g></g></g></g></g></g><g clip-rule="nonzero" clip-path="url(#a52c126131)"><g clip-rule="nonzero" clip-path="url(#7377dd52f3)"><g transform="matrix(1,0,0,1,29,29)"><g id="a8678eb140" clip-path="url(#85b6628ba7)"><g clip-rule="nonzero" clip-path="url(#5c078744f1)"><g clip-rule="nonzero" clip-path="url(#31d0201e98)"><rect x="0" width="45" y="0" height="49" style="fill:#231f20;fill-opacity:1;stroke:none;"/></g></g></g></g></g></g><g clip-rule="nonzero" clip-path="url(#0664878733)"><g transform="matrix(1,0,0,1,75,29)"><g id="e078d86bb4" clip-path="url(#2a21da000d)"><g clip-rule="nonzero" clip-path="url(#876b5f1478)"><rect x="0" width="40" y="0" height="49" style="fill:#231f20;fill-opacity:1;stroke:none;"/></g></g></g></g><g clip-rule="nonzero" clip-path="url(#186a764547)"><g clip-rule="nonzero" clip-path="url(#ee6112e43f)"><g transform="matrix(1,0,0,1,117,29)"><g id="9b62e8dd9d" clip-path="url(#95122761ee)"><g clip-rule="nonzero" clip-path="url(#86dc01b00d)"><g clip-rule="nonzero" clip-path="url(#ad0355f72c)"><rect x="0" width="47" y="0" height="49" style="fill:#231f20;fill-opacity:1;stroke:none;"/></g></g></g></g></g></g><g clip-rule="nonzero" clip-path="url(#64b70e7737)"><g transform="matrix(1,0,0,1,29,84)"><g id="313bc06fce" clip-path="url(#12a5fcf579)"><g clip-rule="nonzero" clip-path="url(#d34969f32e)"><rect x="0" width="41" y="0" height="49" style="fill:#231f20;fill-opacity:1;stroke:none;"/></g></g></g></g><g clip-rule="nonzero" clip-path="url(#a058a64d4e)"><g clip-rule="nonzero" clip-path="url(#3aee3af25f)"><g transform="matrix(1,0,0,1,70,83)"><g id="b11338dd71" clip-path="url(#eac4c45184)"><g clip-rule="nonzero" clip-path="url(#021152a817)"><g clip-rule="nonzero" clip-path="url(#f41047f747)"><rect x="0" width="53" y="0" height="51" style="fill:#231f20;fill-opacity:1;stroke:none;"/></g></g></g></g></g></g><g clip-rule="nonzero" clip-path="url(#47eb143ade)"><g clip-rule="nonzero" clip-path="url(#ab7c6cd46a)"><g transform="matrix(1,0,0,1,124,84)"><g id="7af9afd5f4" clip-path="url(#ae2b82d498)"><g clip-rule="nonzero" clip-path="url(#e8fd888aec)"><g clip-rule="nonzero" clip-path="url(#8f76b9ac0f)"><rect x="0" width="47" y="0" height="49" style="fill:#231f20;fill-opacity:1;stroke:none;"/></g></g></g></g></g></g><g clip-rule="nonzero" clip-path="url(#b15defc20d)"><g clip-rule="nonzero" clip-path="url(#9c79c57bae)"><g transform="matrix(1,0,0,1,29,139)"><g id="8f307f1ca0" clip-path="url(#d2ae356f36)"><g clip-rule="nonzero" clip-path="url(#b1164be726)"><g clip-rule="nonzero" clip-path="url(#aea660f59b)"><rect x="0" width="57" y="0" height="49" style="fill:#231f20;fill-opacity:1;stroke:none;"/></g></g></g></g></g></g><g clip-rule="nonzero" clip-path="url(#235779afa9)"><g clip-rule="nonzero" clip-path="url(#597e994edc)"><g transform="matrix(1,0,0,1,86,138)"><g id="fc0480b7f3" clip-path="url(#0e67bde053)"><g clip-rule="nonzero" clip-path="url(#daebc9e370)"><g clip-rule="nonzero" clip-path="url(#3f2733927c)"><rect x="0" width="60" y="0" height="50" style="fill:#231f20;fill-opacity:1;stroke:none;"/></g></g></g></g></g></g><g clip-rule="nonzero" clip-path="url(#c1db8f6d7f)"><g clip-rule="nonzero" clip-path="url(#e65b9c44cd)"><g transform="matrix(1,0,0,1,4,4)"><g id="71db78e49c" clip-path="url(#59fe27c1ba)"><g clip-rule="nonzero" clip-path="url(#74716a5c57)"><g clip-rule="nonzero" clip-path="url(#6ec5f73203)"><rect x="0" width="192" y="0" height="209" style="fill:#231f20;fill-opacity:1;stroke:none;"/></g></g></g></g></g></g><g clip-rule="nonzero" clip-path="url(#16275f9ea7)"><g transform="matrix(1,0,0,1,163,230)"><g id="67fdf60f09" clip-path="url(#8c69b23724)"><g clip-rule="nonzero" clip-path="url(#c5d82a7504)"><path style=" stroke:none;fill-rule:nonzero;fill:#124734;fill-opacity:1;" d="M 0.332031 0.289062 L 6.3125 0.289062 L 6.3125 9.351562 L 0.332031 9.351562 Z M 0.332031 0.289062 "/></g></g></g></g><g clip-rule="nonzero" clip-path="url(#5b28458e52)"><g clip-rule="nonzero" clip-path="url(#becc387906)"><g transform="matrix(1,0,0,1,207,147)"><g id="475d785cbd" clip-path="url(#d483b36807)"><g clip-rule="nonzero" clip-path="url(#5a94c36146)"><g clip-rule="nonzero" clip-path="url(#5d5f2d69fe)"><rect x="0" width="8" y="0" height="11" style="fill:#231f20;fill-opacity:1;stroke:none;"/></g></g></g></g></g></g><g clip-rule="nonzero" clip-path="url(#0200ef69f4)"><g clip-rule="nonzero" clip-path="url(#c70ec30942)"><g transform="matrix(1,0,0,1,219,147)"><g id="56bdc9faac" clip-path="url(#2cddb31ce5)"><g clip-rule="nonzero" clip-path="url(#cb5f929ed2)"><g clip-rule="nonzero" clip-path="url(#550cc9ba99)"><rect x="0" width="8" y="0" height="11" style="fill:#231f20;fill-opacity:1;stroke:none;"/></g></g></g></g></g></g><g clip-rule="nonzero" clip-path="url(#6412223a01)"><g clip-rule="nonzero" clip-path="url(#42e1d39bac)"><g transform="matrix(1,0,0,1,232,147)"><g id="ed3400e900" clip-path="url(#a53c2a4930)"><g clip-rule="nonzero" clip-path="url(#f8e9a5ab82)"><g clip-rule="nonzero" clip-path="url(#eebf7b51c8)"><rect x="0" width="7" y="0" height="10" style="fill:#231f20;fill-opacity:1;stroke:none;"/></g></g></g></g></g></g><g clip-rule="nonzero" clip-path="url(#5e5cb17b7f)"><g clip-rule="nonzero" clip-path="url(#f83968dfec)"><g transform="matrix(1,0,0,1,244,147)"><g id="681f066de6" clip-path="url(#362c93bbe6)"><g clip-rule="nonzero" clip-path="url(#a4f3db2d86)"><g clip-rule="nonzero" clip-path="url(#e956b0331b)"><rect x="0" width="7" y="0" height="10" style="fill:#231f20;fill-opacity:1;stroke:none;"/></g></g></g></g></g></g><g clip-rule="nonzero" clip-path="url(#2da9209e57)"><g clip-rule="nonzero" clip-path="url(#aa65b46c16)"><g transform="matrix(1,0,0,1,255,147)"><g id="b4c87da106" clip-path="url(#5a7e802a4b)"><g clip-rule="nonzero" clip-path="url(#8aa1988d3f)"><g clip-rule="nonzero" clip-path="url(#7433729829)"><rect x="0" width="8" y="0" height="10" style="fill:#231f20;fill-opacity:1;stroke:none;"/></g></g></g></g></g></g><g clip-rule="nonzero" clip-path="url(#807ac71ab1)"><g clip-rule="nonzero" clip-path="url(#c94375c5f4)"><g transform="matrix(1,0,0,1,208,176)"><g id="09a50c27d8" clip-path="url(#af24be201c)"><g clip-rule="nonzero" clip-path="url(#108d3401a5)"><g clip-rule="nonzero" clip-path="url(#0a68d0347f)"><rect x="0" width="7" y="0" height="11" style="fill:#231f20;fill-opacity:1;stroke:none;"/></g></g></g></g></g></g><g clip-rule="nonzero" clip-path="url(#3bdad3102e)"><g clip-rule="nonzero" clip-path="url(#a823a30e59)"><g transform="matrix(1,0,0,1,220,176)"><g id="ff7a49c534" clip-path="url(#bd92751fff)"><g clip-rule="nonzero" clip-path="url(#f364ecb35f)"><g clip-rule="nonzero" clip-path="url(#4347de00d8)"><rect x="0" width="7" y="0" height="11" style="fill:#231f20;fill-opacity:1;stroke:none;"/></g></g></g></g></g></g><g clip-rule="nonzero" clip-path="url(#4376c61c56)"><g transform="matrix(1,0,0,1,231,176)"><g id="6ce4ccd653" clip-path="url(#da859637f5)"><g clip-rule="nonzero" clip-path="url(#df0f6eb731)"><rect x="0" width="7" y="0" height="11" style="fill:#231f20;fill-opacity:1;stroke:none;"/></g></g></g></g><g clip-rule="nonzero" clip-path="url(#7724978cd0)"><g clip-rule="nonzero" clip-path="url(#6f6124c9b4)"><g transform="matrix(1,0,0,1,242,176)"><g id="20d7d788aa" clip-path="url(#5b209a18a5)"><g clip-rule="nonzero" clip-path="url(#83d780978f)"><g clip-rule="nonzero" clip-path="url(#c5806223cb)"><rect x="0" width="11" y="0" height="11" style="fill:#231f20;fill-opacity:1;stroke:none;"/></g></g></g></g></g></g><g clip-rule="nonzero" clip-path="url(#9c182d81f6)"><g transform="matrix(1,0,0,1,258,176)"><g id="cea636090f" clip-path="url(#f32ac36ad3)"><g clip-rule="nonzero" clip-path="url(#73071c2118)"><rect x="0" width="2" y="0" height="11" style="fill:#231f20;fill-opacity:1;stroke:none;"/></g></g></g></g><g clip-rule="nonzero" clip-path="url(#2ba0e7082c)"><g clip-rule="nonzero" clip-path="url(#c8d137a230)"><g transform="matrix(1,0,0,1,265,176)"><g id="a669bb6110" clip-path="url(#5e97cb139f)"><g clip-rule="nonzero" clip-path="url(#105ce5b0c1)"><g clip-rule="nonzero" clip-path="url(#df9f3c85e6)"><rect x="0" width="8" y="0" height="11" style="fill:#231f20;fill-opacity:1;stroke:none;"/></g></g></g></g></g></g><g clip-rule="nonzero" clip-path="url(#9769cc7187)"><g clip-rule="nonzero" clip-path="url(#732a7cb8a6)"><g transform="matrix(1,0,0,1,277,176)"><g id="fb9cd24a02" clip-path="url(#9d5dd3603a)"><g clip-rule="nonzero" clip-path="url(#fef08ed413)"><g clip-rule="nonzero" clip-path="url(#f9141461f3)"><rect x="0" width="11" y="0" height="11" style="fill:#231f20;fill-opacity:1;stroke:none;"/></g></g></g></g></g></g><g clip-rule="nonzero" clip-path="url(#2bd96d85b6)"><g clip-rule="nonzero" clip-path="url(#38f786be47)"><g transform="matrix(1,0,0,1,207,118)"><g id="2f2ab067d8" clip-path="url(#ec78550a64)"><g clip-rule="nonzero" clip-path="url(#3856592064)"><g clip-rule="nonzero" clip-path="url(#4512c4cedb)"><rect x="0" width="9" y="0" height="10" style="fill:#231f20;fill-opacity:1;stroke:none;"/></g></g></g></g></g></g><g clip-rule="nonzero" clip-path="url(#27a183a831)"><g clip-rule="nonzero" clip-path="url(#6e74f1fbf8)"><g transform="matrix(1,0,0,1,220,118)"><g id="e306feed43" clip-path="url(#d60c5fd1d8)"><g clip-rule="nonzero" clip-path="url(#f448c3c34b)"><g clip-rule="nonzero" clip-path="url(#61afb19bdc)"><rect x="0" width="7" y="0" height="10" style="fill:#231f20;fill-opacity:1;stroke:none;"/></g></g></g></g></g></g><g clip-rule="nonzero" clip-path="url(#e10875cbe3)"><g transform="matrix(1,0,0,1,231,118)"><g id="585ce0fdb8" clip-path="url(#37739085f3)"><g clip-rule="nonzero" clip-path="url(#3e7fd584fa)"><rect x="0" width="2" y="0" height="10" style="fill:#231f20;fill-opacity:1;stroke:none;"/></g></g></g></g><g clip-rule="nonzero" clip-path="url(#01c93b2fa0)"><g clip-rule="nonzero" clip-path="url(#d2fdf12e5a)"><g transform="matrix(1,0,0,1,238,118)"><g id="4a06713095" clip-path="url(#992a8d0303)"><g clip-rule="nonzero" clip-path="url(#3146134864)"><g clip-rule="nonzero" clip-path="url(#3143574d00)"><rect x="0" width="10" y="0" height="10" style="fill:#231f20;fill-opacity:1;stroke:none;"/></g></g></g></g></g></g><g clip-rule="nonzero" clip-path="url(#5ba4b33bde)"><g clip-rule="nonzero" clip-path="url(#b8ceb88814)"><g transform="matrix(1,0,0,1,253,118)"><g id="7af55abfb9" clip-path="url(#5945caab9b)"><g clip-rule="nonzero" clip-path="url(#1a4a5a2b17)"><g clip-rule="nonzero" clip-path="url(#3d270ca5f3)"><rect x="0" width="7" y="0" height="10" style="fill:#231f20;fill-opacity:1;stroke:none;"/></g></g></g></g></g></g><g clip-rule="nonzero" clip-path="url(#59766cb684)"><g clip-rule="nonzero" clip-path="url(#63cc791d9c)"><g transform="matrix(1,0,0,1,264,118)"><g id="96d6155869" clip-path="url(#ae42b73811)"><g clip-rule="nonzero" clip-path="url(#2231452398)"><g clip-rule="nonzero" clip-path="url(#f112ccfe61)"><rect x="0" width="8" y="0" height="10" style="fill:#231f20;fill-opacity:1;stroke:none;"/></g></g></g></g></g></g><g clip-rule="nonzero" clip-path="url(#4022585a45)"><g transform="matrix(1,0,0,1,276,118)"><g id="b0377ca3db" clip-path="url(#5abf3df755)"><g clip-rule="nonzero" clip-path="url(#50e2065d40)"><rect x="0" width="8" y="0" height="10" style="fill:#231f20;fill-opacity:1;stroke:none;"/></g></g></g></g><g clip-rule="nonzero" clip-path="url(#956c79b821)"><g clip-rule="nonzero" clip-path="url(#bbb50ccd23)"><g transform="matrix(1,0,0,1,287,118)"><g id="aeedd72bd8" clip-path="url(#9e11c979bb)"><g clip-rule="nonzero" clip-path="url(#6f96030f6a)"><g clip-rule="nonzero" clip-path="url(#9a02c83875)"><rect x="0" width="9" y="0" height="10" style="fill:#231f20;fill-opacity:1;stroke:none;"/></g></g></g></g></g></g></g></g></g></svg>